<svg xmlns="http://www.w3.org/2000/svg" viewBox="0 0 1024 1024" width="512" height="512">
  <g id="background">
    <path d="M0 0 C6.563 5.16 11.619 11.401 15.301 18.881 C15.57 19.426 15.848 19.966 16.127 20.506 C20.385 28.926 19.805 41.738 17.713 50.775 C17.693 50.859 17.693 50.859 17.595 51.286 C16.967 53.865 15.818 56.133 14.588 58.462 C14.738 58.428 14.738 58.428 15.496 58.252 C18.638 57.555 21.657 57.274 24.869 57.224 C25.111 57.219 25.353 57.214 25.603 57.209 C27.431 57.173 29.259 57.156 31.088 57.15 C31.222 57.149 31.222 57.149 31.903 57.147 C40.401 57.127 48.026 57.457 55.847 61.117 C56.627 61.48 57.411 61.829 58.197 62.178 C65.291 65.366 70.968 69.347 76.541 74.747 C84.318 82.234 90.489 85.462 101.588 85.462 C107.588 81.462 107.588 81.462 112.588 69.462 C118.588 64.462 118.588 64.462 126.588 64.462 C134.617 67.791 139.66 73.209 143.015 81.213 C144.904 85.886 146.114 90.446 146.588 95.462 C146.616 95.736 146.643 96.01 146.672 96.292 C148.264 112.593 143.044 128.176 133.588 141.462 C133.415 141.708 133.242 141.954 133.064 142.207 C123.479 155.778 110.527 163.94 95.354 170.148 C94.677 170.426 94.003 170.709 93.33 170.996 C90.801 172.061 88.254 172.823 85.588 173.462 C85.325 173.527 85.062 173.592 84.791 173.658 C62.59 179.067 38.978 177.911 12.266 166.813 C11.558 166.447 10.846 166.092 10.132 165.738 C-0.797 160.262 -8.892 152.051 -17.412 143.462 C-17.513 143.661 -17.614 143.86 -17.718 144.065 C-23.255 154.934 -28.925 164.398 -37.784 172.857 C-38.381 173.432 -38.966 174.017 -39.547 174.608 C-54.692 189.989 -78.555 198.225 -106.412 201.462 C-106.599 201.474 -106.786 201.485 -106.979 201.497 C-128.972 202.813 -150.019 198.945 -186.412 177.462 C-191.412 178.462 -191.412 178.462 -193.213 180.115 C-198.057 184.54 -202.989 188.816 -208.091 192.942 C-211.481 195.686 -214.818 198.485 -218.138 201.313 C-222.292 204.849 -226.465 208.348 -230.743 211.735 C-234.869 215.002 -238.929 218.345 -242.987 221.696 C-258.723 234.686 -274.499 247.621 -294.412 262.462 C-293.187 266.594 -290.966 269.47 -288.133 272.651 C-286.875 274.063 -285.645 275.5 -284.412 276.935 C-284.286 277.082 -284.159 277.228 -284.029 277.38 C-281.482 280.338 -279.077 283.391 -276.716 286.499 C-276.41 286.902 -276.104 287.305 -275.798 287.707 C-275.384 288.25 -274.971 288.792 -274.559 289.335 C-274.456 289.47 -274.353 289.605 -274.247 289.744 C-274.039 290.017 -273.832 290.29 -273.624 290.564 C-271.24 293.7 -268.816 296.804 -266.381 299.9 C-266.037 300.337 -265.694 300.774 -265.35 301.211 C-262.716 304.562 -260.068 307.9 -257.4 311.224 C-257.275 311.38 -257.149 311.537 -257.02 311.698 C-256.385 312.49 -255.749 313.281 -255.114 314.073 C-250.794 319.454 -246.527 324.868 -242.333 330.348 C-241.919 330.889 -241.505 331.43 -241.092 331.97 C-240.987 332.106 -240.883 332.243 -240.776 332.383 C-237.908 336.13 -235.008 339.852 -232.109 343.576 C-231.661 344.151 -231.214 344.726 -230.766 345.301 C-229.557 346.854 -228.349 348.406 -227.14 349.959 C-224.331 353.566 -221.524 357.175 -218.717 360.784 C-217.702 362.09 -216.686 363.396 -215.67 364.702 C-212.865 368.308 -210.061 371.914 -207.258 375.522 C-201.808 382.537 -196.356 389.552 -190.869 396.539 C-190.551 396.945 -190.233 397.35 -189.915 397.756 C-187.046 401.413 -184.148 405.047 -181.244 408.675 C-180.871 409.141 -180.497 409.608 -180.124 410.074 C-179.22 411.203 -178.316 412.333 -177.412 413.462 C-177.138 413.463 -176.864 413.463 -176.582 413.464 C-169.833 413.478 -163.085 413.522 -156.337 413.594 C-153.073 413.629 -149.809 413.654 -146.545 413.658 C-126.156 413.688 -104.59 414.507 -88.967 429.775 C-85.311 433.492 -82.609 438.088 -80.221 442.689 C-80.139 442.844 -80.057 442.999 -79.973 443.159 C-74.792 453.44 -75.141 464.573 -75.268 475.771 C-75.291 477.815 -75.302 479.858 -75.311 481.902 C-75.332 486.089 -75.367 490.276 -75.412 494.462 C-75.308 494.458 -75.308 494.458 -74.78 494.439 C-66.495 494.139 -66.495 494.139 -62.682 494.232 C-62.471 494.237 -62.261 494.242 -62.044 494.247 C-44.142 494.737 -25.156 500.774 -12.494 514.017 C-10.152 516.579 -8.25 519.425 -6.475 522.4 C-6.336 522.629 -6.198 522.858 -6.055 523.094 C-1.205 531.31 0.049 539.991 -0.108 549.371 C-0.127 550.717 -0.128 552.064 -0.132 553.41 C-0.141 555.943 -0.166 558.474 -0.196 561.006 C-0.23 563.896 -0.246 566.786 -0.261 569.677 C-0.354 587.402 -0.354 587.402 -1.956 590.715 C-2.132 591.082 -2.306 591.449 -2.477 591.818 C-4.234 595.594 -6.256 598.106 -10.222 599.573 C-22.729 604.05 -36.533 604.78 -49.658 605.979 C-50.148 606.023 -50.638 606.069 -51.128 606.114 C-56.552 606.614 -61.98 607.054 -67.412 607.462 C-67.534 607.471 -67.534 607.471 -68.151 607.518 C-88.859 609.075 -109.58 610.172 -134.355 611.063 C-135.041 611.087 -135.727 611.112 -136.413 611.136 C-159.942 611.972 -183.475 612.482 -261.912 612.837 C-262.013 612.837 -262.013 612.837 -262.522 612.837 C-281.963 612.836 -301.405 612.787 -415.588 609.564 C-417.37 609.464 -419.152 609.368 -420.933 609.272 C-434.113 608.563 -447.271 607.711 -460.412 606.462 C-460.609 606.444 -460.806 606.425 -461.01 606.406 C-466.936 605.843 -472.857 605.238 -478.774 604.587 C-479.522 604.505 -480.27 604.423 -481.018 604.343 C-487.972 603.594 -494.882 602.806 -501.65 600.974 C-501.872 600.915 -502.094 600.856 -502.322 600.795 C-510.055 598.692 -512.829 594.795 -517.412 587.462 C-517.503 581.411 -517.577 575.36 -517.619 569.309 C-517.64 566.497 -517.668 563.686 -517.714 560.875 C-518.108 536.406 -518.108 536.406 -513.412 527.462 C-513.296 527.239 -513.18 527.016 -513.061 526.785 C-511.467 523.728 -509.744 520.822 -507.776 517.99 C-507.437 517.498 -507.108 517 -506.782 516.499 C-503.646 511.731 -499.196 508.757 -494.475 505.712 C-494.326 505.616 -494.178 505.52 -494.025 505.421 C-487.201 501.005 -480.252 498.189 -472.342 496.402 C-471.597 496.231 -470.853 496.051 -470.11 495.871 C-469.374 495.695 -468.638 495.524 -467.901 495.354 C-467.559 495.275 -467.217 495.194 -466.875 495.111 C-464.025 494.427 -461.328 494.38 -458.412 494.462 C-458.416 494.266 -458.419 494.07 -458.423 493.868 C-458.513 489.041 -458.578 484.214 -458.619 479.386 C-458.64 477.051 -458.668 474.717 -458.714 472.382 C-459.102 452.429 -459.102 452.429 -454.656 443.934 C-454.298 443.242 -453.976 442.534 -453.649 441.827 C-453.059 440.592 -452.394 439.43 -451.662 438.275 C-451.54 438.076 -451.418 437.878 -451.292 437.674 C-448.353 432.939 -444.672 429.032 -440.412 425.462 C-440.242 425.319 -440.072 425.176 -439.897 425.029 C-435.311 421.21 -430.468 418.876 -424.787 417.087 C-424.521 417.001 -424.255 416.916 -423.982 416.827 C-419.759 415.495 -415.823 415.252 -411.412 415.462 C-415.739 406.368 -420.531 397.661 -425.697 389.022 C-427.959 385.24 -430.189 381.439 -432.412 377.634 C-432.59 377.329 -432.768 377.025 -432.946 376.72 C-433.58 375.636 -434.214 374.551 -434.848 373.466 C-441.637 361.85 -448.477 350.266 -455.431 338.748 C-457.207 335.805 -458.976 332.859 -460.744 329.911 C-460.811 329.799 -460.811 329.799 -461.152 329.231 C-463.412 325.463 -463.412 325.463 -463.412 323.462 C-463.622 323.408 -463.832 323.354 -464.048 323.298 C-481.991 318.456 -498.012 304.201 -507.346 288.326 C-509.335 284.832 -510.949 281.2 -512.412 277.462 C-512.477 277.298 -512.542 277.134 -512.608 276.964 C-519.499 259.39 -521.702 233.996 -514.23 216.314 C-514.031 215.861 -513.833 215.408 -513.631 214.956 C-513.397 214.428 -513.165 213.9 -512.934 213.372 C-507.962 202.101 -502.037 192.475 -493.021 184.035 C-492.45 183.498 -491.887 182.953 -491.327 182.403 C-489.138 180.261 -486.851 178.315 -484.412 176.462 C-484.232 176.323 -484.053 176.184 -483.868 176.041 C-477.619 171.219 -470.893 168.271 -463.537 165.587 C-463.433 165.549 -463.433 165.549 -462.906 165.356 C-461.498 164.842 -460.085 164.34 -458.67 163.845 C-458.49 163.781 -458.31 163.717 -458.125 163.651 C-453.152 161.895 -448.502 161.313 -443.236 161.365 C-442.661 161.366 -442.085 161.368 -441.509 161.369 C-440.011 161.373 -438.514 161.382 -437.016 161.394 C-435.481 161.404 -433.946 161.408 -432.41 161.413 C-429.411 161.424 -426.411 161.441 -423.412 161.462 C-420.888 159.404 -418.367 157.341 -415.85 155.275 C-415.659 155.118 -415.468 154.962 -415.272 154.801 C-409.301 149.899 -403.414 144.913 -397.598 139.829 C-393.699 136.42 -389.763 133.082 -385.725 129.837 C-381.675 126.583 -377.83 123.145 -374.03 119.607 C-370.261 116.097 -366.4 112.758 -362.365 109.553 C-359.516 107.283 -356.796 104.926 -354.174 102.4 C-353.892 102.129 -353.61 101.857 -353.328 101.586 C-353.187 101.451 -353.046 101.315 -352.901 101.175 C-338.396 87.225 -319.649 73.967 -290.35 65.15 C-290.162 65.106 -289.974 65.061 -289.78 65.016 C-288.692 64.762 -287.602 64.513 -286.511 64.273 C-286.019 64.165 -285.528 64.055 -285.038 63.945 C-283.135 63.54 -281.356 63.372 -279.412 63.462 C-279.374 63.227 -279.336 62.992 -279.297 62.75 C-278.709 59.655 -277.285 57.376 -275.475 54.837 C-275.4 54.731 -275.4 54.731 -275.022 54.194 C-271.115 48.689 -266.408 43.976 -261.412 39.462 C-261.256 39.32 -261.1 39.177 -260.939 39.03 C-256.943 35.4 -252.188 33.335 -247.287 31.212 C-246.985 31.081 -246.683 30.95 -246.372 30.814 C-241.266 28.618 -236.666 27.26 -231.1 27.4 C-230.737 27.405 -230.374 27.409 -230.012 27.413 C-229.145 27.424 -228.279 27.441 -227.412 27.462 C-227.493 27.713 -227.573 27.963 -227.656 28.221 C-227.971 29.208 -228.278 30.196 -228.584 31.185 C-228.714 31.603 -228.846 32.019 -228.979 32.435 C-231.864 41.422 -232.826 50.245 -232.787 59.65 C-232.787 59.922 -232.786 60.195 -232.786 60.476 C-232.77 69.675 -232.117 77.899 -228.764 86.555 C-228.521 87.182 -228.281 87.81 -228.045 88.44 C-224.441 98.075 -220.068 106.525 -213.412 114.462 C-213.242 114.666 -213.071 114.87 -212.896 115.079 C-206.788 122.361 -206.788 122.361 -205.5 122.709 C-202.515 123.554 -200.632 125.096 -198.451 127.196 C-191.207 134.101 -181.691 138.349 -171.975 140.4 C-171.694 140.46 -171.413 140.52 -171.123 140.581 C-162.805 142.295 -157.469 141.451 -150.42 136.866 C-140.701 130.338 -135.166 118.312 -129.412 108.462 C-129.53 108.497 -129.53 108.497 -130.124 108.67 C-132.773 109.408 -135.311 109.682 -138.053 109.771 C-138.269 109.779 -138.486 109.786 -138.709 109.794 C-140.36 109.85 -142.011 109.882 -143.662 109.9 C-143.905 109.902 -144.149 109.905 -144.4 109.908 C-157.999 110.026 -169.891 106.404 -179.954 96.884 C-180.543 96.341 -181.158 95.834 -181.777 95.325 C-189.967 88.543 -196.029 76.71 -198.412 66.462 C-198.457 66.281 -198.502 66.099 -198.548 65.912 C-202.136 51.242 -198.405 35.758 -190.779 23.052 C-185.333 14.129 -176.93 6.736 -167.412 2.462 C-167.187 2.359 -166.961 2.256 -166.729 2.149 C-155.254 -3.05 -139.073 -4.084 -127.14 0.351 C-125.762 0.892 -124.42 1.498 -123.086 2.139 C-122.393 2.471 -121.696 2.792 -120.997 3.112 C-106.784 9.694 -96.026 21.463 -90.464 36.128 C-90.064 37.226 -89.723 38.336 -89.412 39.462 C-89.361 39.646 -89.31 39.829 -89.257 40.018 C-88.194 43.999 -88.212 48.058 -88.225 52.15 C-88.225 52.325 -88.225 52.501 -88.225 52.682 C-88.233 61.901 -89.819 69.972 -93.412 78.462 C-93.281 78.414 -93.15 78.366 -93.015 78.317 C-91.636 77.814 -90.257 77.311 -88.877 76.808 C-88.364 76.621 -87.851 76.434 -87.338 76.247 C-86.596 75.976 -85.854 75.705 -85.111 75.435 C-84.886 75.353 -84.661 75.27 -84.429 75.185 C-83.984 75.023 -83.538 74.864 -83.092 74.706 C-82.631 74.541 -82.173 74.369 -81.718 74.19 C-79.633 73.415 -77.6 73.248 -75.4 73.146 C-75.024 73.125 -74.647 73.104 -74.27 73.083 C-73.289 73.028 -72.307 72.979 -71.326 72.93 C-70.32 72.879 -69.314 72.824 -68.309 72.769 C-66.343 72.662 -64.378 72.56 -62.412 72.462 C-62.593 72.288 -62.773 72.114 -62.959 71.934 C-67.228 67.746 -70.275 63.332 -72.787 57.9 C-72.851 57.766 -72.851 57.766 -73.171 57.091 C-76.235 50.575 -76.683 43.836 -76.725 36.712 C-76.726 36.54 -76.727 36.367 -76.728 36.19 C-76.76 29.328 -75.546 23.604 -72.412 17.462 C-72.359 17.355 -72.359 17.355 -72.089 16.814 C-66.27 5.146 -56.821 -3.88 -44.379 -8.221 C-29.777 -12.962 -12.016 -9.146 0 0 Z " fill="#F9B01F" transform="translate(733.412109375,170.53778076171875)"/>
    <path d="M0 0 C2.048 0.014 4.096 0.004 6.143 -0.006 C9.967 -0.024 13.79 -0.024 17.613 -0.013 C21.475 -0.002 25.336 0.001 29.197 -0.008 C29.444 -0.008 29.69 -0.009 29.943 -0.009 C30.946 -0.011 31.949 -0.014 32.952 -0.016 C42.24 -0.037 51.529 -0.038 60.817 -0.027 C69.765 -0.016 78.713 -0.012 87.662 -0.017 C88.226 -0.018 88.79 -0.018 89.355 -0.018 C91.624 -0.019 93.892 -0.021 96.161 -0.022 C102.502 -0.026 108.843 -0.028 115.184 -0.029 C115.472 -0.029 115.761 -0.029 116.058 -0.029 C125.242 -0.031 134.425 -0.027 143.609 -0.018 C143.906 -0.018 144.204 -0.017 144.51 -0.017 C149.339 -0.012 154.167 -0.008 158.995 -0.003 C178.132 0.017 197.268 0.016 216.405 -0.004 C221.227 -0.008 226.05 -0.013 230.872 -0.018 C231.169 -0.018 231.466 -0.018 231.772 -0.019 C240.945 -0.027 250.117 -0.031 259.289 -0.029 C259.578 -0.029 259.866 -0.029 260.163 -0.029 C266.499 -0.028 272.835 -0.025 279.171 -0.022 C281.438 -0.02 283.706 -0.019 285.973 -0.018 C286.537 -0.017 287.101 -0.017 287.665 -0.017 C296.605 -0.012 305.545 -0.017 314.485 -0.028 C323.752 -0.039 333.02 -0.035 342.288 -0.014 C343.289 -0.012 344.29 -0.01 345.291 -0.008 C345.414 -0.007 345.414 -0.007 346.036 -0.006 C349.414 0.001 352.792 -0.001 356.17 -0.011 C390.776 -0.109 390.776 -0.109 402.326 2.289 C402.421 2.308 402.421 2.308 402.902 2.406 C416.6 5.235 431.627 13.694 439.492 25.401 C440.141 26.408 440.765 27.427 441.379 28.455 C441.517 28.685 441.656 28.914 441.798 29.15 C446.649 37.366 447.903 46.047 447.746 55.426 C447.726 56.773 447.725 58.12 447.722 59.466 C447.712 61.998 447.688 64.53 447.658 67.062 C447.624 69.952 447.607 72.842 447.592 75.732 C447.5 93.457 447.5 93.457 445.897 96.771 C445.721 97.138 445.548 97.505 445.377 97.874 C443.62 101.65 441.598 104.162 437.631 105.628 C425.125 110.105 411.32 110.836 398.196 112.034 C397.706 112.079 397.216 112.124 396.725 112.17 C391.301 112.67 385.873 113.11 380.441 113.518 C380.198 113.536 379.954 113.555 379.703 113.574 C358.995 115.13 338.273 116.228 313.499 117.119 C312.813 117.143 312.127 117.167 311.441 117.192 C287.911 118.028 264.378 118.538 185.941 118.893 C185.841 118.893 185.841 118.893 185.332 118.893 C165.89 118.891 146.449 118.843 32.265 115.619 C30.484 115.52 28.702 115.424 26.92 115.328 C13.74 114.618 0.582 113.766 -12.559 112.518 C-12.756 112.499 -12.953 112.481 -13.156 112.461 C-19.082 111.899 -25.003 111.294 -30.92 110.643 C-31.668 110.561 -32.416 110.479 -33.164 110.399 C-40.119 109.65 -47.029 108.862 -53.797 107.03 C-54.018 106.971 -54.24 106.912 -54.468 106.851 C-62.201 104.747 -64.976 100.851 -69.559 93.518 C-69.65 87.467 -69.723 81.416 -69.766 75.364 C-69.786 72.553 -69.814 69.742 -69.86 66.931 C-70.255 42.462 -70.255 42.462 -65.559 33.518 C-65.443 33.295 -65.327 33.071 -65.207 32.841 C-63.613 29.784 -61.89 26.878 -59.922 24.046 C-59.583 23.554 -59.254 23.056 -58.929 22.555 C-55.792 17.787 -51.343 14.812 -46.621 11.768 C-46.473 11.672 -46.324 11.576 -46.171 11.476 C-45.292 10.907 -44.408 10.347 -43.517 9.796 C-43.121 9.55 -42.727 9.301 -42.333 9.051 C-36.893 5.761 -30.854 3.808 -24.704 2.362 C-24.523 2.319 -24.343 2.276 -24.157 2.232 C-16.087 0.322 -8.263 -0.062 0 0 Z " fill="#636365" transform="translate(285.5585332556657,664.4820453402353)"/>
    <path d="M0 0 C6.563 5.16 11.619 11.401 15.301 18.881 C15.57 19.426 15.848 19.966 16.127 20.506 C20.385 28.926 19.805 41.738 17.713 50.775 C17.693 50.859 17.693 50.859 17.595 51.286 C16.967 53.865 15.818 56.133 14.588 58.462 C14.738 58.428 14.738 58.428 15.496 58.252 C18.638 57.555 21.657 57.274 24.869 57.224 C25.111 57.219 25.353 57.214 25.603 57.209 C27.431 57.173 29.259 57.156 31.088 57.15 C31.357 57.149 31.626 57.148 31.903 57.147 C40.401 57.127 48.026 57.457 55.847 61.117 C56.627 61.48 57.411 61.829 58.197 62.178 C65.291 65.366 70.968 69.347 76.541 74.747 C84.318 82.234 90.489 85.462 101.588 85.462 C107.588 81.462 107.588 81.462 112.588 69.462 C118.588 64.462 118.588 64.462 126.588 64.462 C134.617 67.791 139.66 73.209 143.015 81.213 C144.904 85.886 146.114 90.446 146.588 95.462 C146.616 95.736 146.643 96.01 146.672 96.292 C148.264 112.593 143.044 128.176 133.588 141.462 C133.415 141.708 133.242 141.954 133.064 142.207 C123.479 155.778 110.527 163.94 95.354 170.148 C94.677 170.426 94.003 170.709 93.33 170.996 C90.801 172.061 88.254 172.823 85.588 173.462 C85.456 173.495 85.456 173.495 84.791 173.658 C62.59 179.067 38.978 177.911 12.266 166.813 C11.558 166.447 10.846 166.092 10.132 165.738 C-0.797 160.262 -8.892 152.051 -17.412 143.462 C-17.513 143.661 -17.614 143.86 -17.718 144.065 C-23.255 154.934 -28.925 164.398 -37.784 172.857 C-38.381 173.432 -38.966 174.017 -39.547 174.608 C-54.692 189.989 -78.555 198.225 -106.412 201.462 C-106.599 201.474 -106.786 201.485 -106.979 201.497 C-128.972 202.813 -150.018 198.945 -185.076 178.549 C-186.451 177.404 -187.895 176.411 -189.412 175.462 C-189.412 174.802 -189.412 174.142 -189.412 173.462 C-190.402 173.132 -191.392 172.802 -192.412 172.462 C-193.072 171.472 -193.732 170.482 -194.412 169.462 C-194.643 169.496 -194.643 169.496 -195.811 169.668 C-201.338 170.442 -206.832 170.789 -212.412 170.837 C-212.638 170.839 -212.864 170.842 -213.097 170.844 C-222.638 170.916 -230.637 169.121 -239.412 165.462 C-239.907 165.262 -240.403 165.063 -240.898 164.864 C-247.261 162.266 -252.466 158.386 -257.663 153.934 C-258.644 153.096 -259.633 152.285 -260.664 151.511 C-263.867 149.092 -266.334 146.431 -268.725 143.212 C-268.913 142.961 -269.102 142.71 -269.296 142.451 C-275.296 134.383 -280.176 124.881 -283.35 115.337 C-283.404 115.175 -283.458 115.012 -283.514 114.845 C-285.088 109.979 -285.579 104.837 -285.686 99.751 C-285.689 99.622 -285.689 99.622 -285.705 98.966 C-285.75 97.007 -285.774 95.047 -285.787 93.087 C-285.789 92.799 -285.791 92.511 -285.794 92.214 C-285.854 82.148 -284.886 73.433 -280.747 64.21 C-280.433 63.509 -280.13 62.804 -279.83 62.096 C-276.944 55.422 -272.046 50.169 -266.987 45.047 C-266.437 44.487 -265.893 43.922 -265.35 43.356 C-257.188 34.9 -244.557 27.606 -232.584 27.344 C-230.857 27.322 -229.136 27.372 -227.412 27.462 C-227.452 27.588 -227.452 27.588 -227.656 28.221 C-227.971 29.208 -228.278 30.196 -228.584 31.185 C-228.714 31.603 -228.846 32.019 -228.979 32.435 C-231.864 41.422 -232.826 50.245 -232.787 59.65 C-232.787 59.922 -232.786 60.195 -232.786 60.476 C-232.77 69.675 -232.117 77.899 -228.764 86.555 C-228.521 87.182 -228.281 87.81 -228.045 88.44 C-224.441 98.075 -220.068 106.525 -213.412 114.462 C-213.242 114.666 -213.071 114.87 -212.896 115.079 C-206.788 122.361 -206.788 122.361 -205.5 122.709 C-202.515 123.554 -200.632 125.096 -198.451 127.196 C-191.207 134.101 -181.691 138.349 -171.975 140.4 C-171.694 140.46 -171.413 140.52 -171.123 140.581 C-162.805 142.295 -157.469 141.451 -150.42 136.866 C-140.701 130.338 -135.166 118.312 -129.412 108.462 C-129.53 108.497 -129.53 108.497 -130.124 108.67 C-132.773 109.408 -135.311 109.682 -138.053 109.771 C-138.269 109.779 -138.486 109.786 -138.709 109.794 C-140.36 109.85 -142.011 109.882 -143.662 109.9 C-143.905 109.902 -144.149 109.905 -144.4 109.908 C-157.999 110.026 -169.891 106.404 -179.954 96.884 C-180.543 96.341 -181.158 95.834 -181.777 95.325 C-189.967 88.543 -196.029 76.71 -198.412 66.462 C-198.457 66.281 -198.502 66.099 -198.548 65.912 C-202.136 51.242 -198.405 35.758 -190.779 23.052 C-185.333 14.129 -176.93 6.736 -167.412 2.462 C-167.187 2.359 -166.961 2.256 -166.729 2.149 C-155.254 -3.05 -139.073 -4.084 -127.14 0.351 C-125.762 0.892 -124.42 1.498 -123.086 2.139 C-122.393 2.471 -121.696 2.792 -120.997 3.112 C-106.784 9.694 -96.026 21.463 -90.464 36.128 C-90.064 37.226 -89.723 38.336 -89.412 39.462 C-89.387 39.554 -89.387 39.554 -89.257 40.018 C-88.194 43.999 -88.212 48.058 -88.225 52.15 C-88.225 52.238 -88.225 52.238 -88.225 52.682 C-88.233 61.901 -89.819 69.972 -93.412 78.462 C-93.281 78.414 -93.15 78.366 -93.015 78.317 C-91.636 77.814 -90.257 77.311 -88.877 76.808 C-88.364 76.621 -87.851 76.434 -87.338 76.247 C-86.596 75.976 -85.854 75.705 -85.111 75.435 C-84.886 75.353 -84.661 75.27 -84.429 75.185 C-83.984 75.023 -83.538 74.864 -83.092 74.706 C-82.631 74.541 -82.173 74.369 -81.718 74.19 C-79.633 73.415 -77.6 73.248 -75.4 73.146 C-75.024 73.125 -74.647 73.104 -74.27 73.083 C-73.289 73.028 -72.307 72.979 -71.326 72.93 C-70.32 72.879 -69.314 72.824 -68.309 72.769 C-66.343 72.662 -64.378 72.56 -62.412 72.462 C-62.593 72.288 -62.773 72.114 -62.959 71.934 C-67.228 67.746 -70.275 63.332 -72.787 57.9 C-72.914 57.633 -73.041 57.366 -73.171 57.091 C-76.235 50.575 -76.683 43.836 -76.725 36.712 C-76.726 36.54 -76.727 36.367 -76.728 36.19 C-76.76 29.328 -75.546 23.604 -72.412 17.462 C-72.306 17.248 -72.199 17.034 -72.089 16.814 C-66.27 5.146 -56.821 -3.88 -44.379 -8.221 C-29.777 -12.962 -12.016 -9.146 0 0 Z " fill="#626264" transform="translate(733.412109375,170.53778076171875)"/>
    <path d="M0 0 C3 1 3 1 3.943 2.262 C5.419 4.238 6.897 6.213 8.375 8.188 C8.511 8.369 8.647 8.551 8.787 8.738 C12.256 13.371 15.744 17.987 19.291 22.56 C23.778 28.344 28.129 34.222 32.458 40.124 C36.25 45.294 40.064 50.438 44 55.5 C47.813 60.405 51.511 65.386 55.183 70.396 C60.425 77.55 65.739 84.642 71.125 91.688 C71.292 91.906 71.46 92.125 71.632 92.351 C71.969 92.791 72.305 93.231 72.641 93.67 C73.472 94.757 74.302 95.843 75.133 96.93 C75.295 97.142 75.458 97.355 75.625 97.573 C79.11 102.133 82.561 106.718 86 111.312 C86.131 111.487 86.261 111.662 86.396 111.842 C91 117.991 91 117.991 91 120 C91.14 119.998 91.279 119.996 91.423 119.994 C111.301 119.692 131.18 119.418 151.059 119.188 C152.809 119.168 154.559 119.148 156.309 119.128 C156.958 119.12 157.606 119.113 158.255 119.105 C164.291 119.035 170.327 118.954 176.363 118.864 C182.049 118.78 187.736 118.714 193.423 118.672 C196.347 118.65 199.27 118.619 202.194 118.566 C221.138 118.225 240.429 120.215 255.048 133.924 C258.911 137.7 261.72 142.464 264.191 147.227 C264.273 147.382 264.355 147.537 264.439 147.697 C272.23 163.159 269 183.105 269 199 C142.61 199 16.22 199 -114 199 C-114 153.473 -114 153.473 -107.25 142.812 C-107.128 142.614 -107.006 142.416 -106.88 142.211 C-103.941 137.476 -100.259 133.569 -96 130 C-95.83 129.857 -95.66 129.714 -95.485 129.566 C-88.176 123.481 -77.728 119.04 -68.074 119.859 C-67.72 119.906 -67.365 119.952 -67 120 C-66.67 119.34 -66.34 118.68 -66 118 C-26.73 118 12.54 118 53 118 C48 113 48 113 44.712 112.94 C39.6 112.845 34.487 112.738 29.375 112.625 C29.144 112.62 28.913 112.615 28.675 112.61 C15.575 112.321 2.509 111.869 -10.562 110.938 C-10.886 110.914 -11.21 110.891 -11.543 110.868 C-15.363 110.594 -19.182 110.306 -23 110 C-24.486 107.608 -25.964 105.212 -27.438 102.812 C-27.555 102.622 -27.672 102.431 -27.793 102.234 C-31.337 96.462 -34.811 90.649 -38.234 84.805 C-38.28 84.727 -38.28 84.727 -38.511 84.332 C-40.352 81.189 -42.189 78.045 -44.021 74.897 C-44.975 73.257 -45.93 71.619 -46.887 69.98 C-46.971 69.836 -47.055 69.692 -47.142 69.543 C-50.985 62.961 -54.973 56.471 -59 50 C-59 49.01 -59 48.02 -59 47 C-58.598 46.844 -58.196 46.689 -57.782 46.529 C-45.356 41.705 -34.19 36.719 -23.59 28.458 C-23.051 28.04 -22.509 27.626 -21.965 27.215 C-14.02 21.188 -8.347 12.905 -3.17 4.491 C-3.031 4.265 -2.891 4.039 -2.748 3.806 C-2.489 3.383 -2.232 2.96 -1.976 2.535 C-1.919 2.441 -1.919 2.441 -1.629 1.965 C-1.58 1.883 -1.58 1.883 -1.332 1.471 C-1 1 -1 1 0 0 Z " fill="#FDCF30" transform="translate(389,466)"/>
    <path d="M0 0 C0.107 -0.002 0.107 -0.002 0.649 -0.015 C2.282 -0.051 3.914 -0.068 5.547 -0.074 C5.789 -0.075 6.031 -0.076 6.281 -0.077 C26.579 -0.129 46.18 6.209 61.626 19.656 C62.285 20.228 62.95 20.793 63.615 21.357 C75.418 31.474 82.588 44.977 87.238 59.594 C87.333 59.889 87.427 60.184 87.524 60.488 C88.928 65.09 89.489 69.565 89.605 74.367 C89.613 74.655 89.621 74.942 89.629 75.238 C89.685 77.426 89.716 79.613 89.734 81.801 C89.737 82.123 89.74 82.445 89.743 82.777 C89.831 95.115 88.186 105.901 83.297 117.238 C83.233 117.387 83.233 117.387 82.91 118.139 C79.978 124.846 75.806 130.644 71.127 136.236 C70.473 137.02 69.839 137.818 69.215 138.626 C60.138 150.354 46.307 158.554 32.359 163.176 C32.207 163.227 32.207 163.227 31.435 163.484 C23.938 165.944 16.685 166.427 8.864 166.424 C7.906 166.424 6.948 166.43 5.991 166.444 C0.579 166.52 -4.501 166.345 -9.756 164.951 C-12.761 164.155 -15.604 164.02 -18.703 164.238 C-18.703 163.578 -18.703 162.918 -18.703 162.238 C-18.913 162.184 -19.123 162.13 -19.339 162.074 C-37.282 157.233 -53.303 142.977 -62.637 127.102 C-64.626 123.608 -66.24 119.976 -67.703 116.238 C-67.735 116.156 -67.735 116.156 -67.899 115.74 C-74.79 98.166 -76.993 72.772 -69.521 55.09 C-69.322 54.637 -69.124 54.184 -68.922 53.732 C-68.688 53.204 -68.456 52.676 -68.225 52.148 C-63.253 40.877 -57.328 31.251 -48.312 22.811 C-47.741 22.274 -47.178 21.729 -46.618 21.179 C-44.429 19.037 -42.142 17.091 -39.703 15.238 C-39.523 15.099 -39.344 14.96 -39.159 14.817 C-32.91 9.995 -26.184 7.047 -18.828 4.363 C-18.62 4.287 -18.412 4.211 -18.197 4.133 C-16.789 3.618 -15.376 3.117 -13.961 2.621 C-13.871 2.589 -13.871 2.589 -13.416 2.427 C-9.014 0.873 -4.665 0.083 0 0 Z " fill="#FDD833" transform="translate(288.703125,331.76171875)"/>
    <path d="M0 0 C1.961 0.005 3.923 0.005 5.884 0.004 C9.501 0.003 13.118 0.006 16.734 0.012 C20.304 0.018 23.875 0.022 27.445 0.023 C27.557 0.023 27.557 0.023 28.123 0.023 C29.259 0.023 30.396 0.024 31.532 0.024 C39.539 0.026 47.546 0.033 55.552 0.042 C63.321 0.051 71.09 0.058 78.858 0.063 C79.098 0.063 79.339 0.063 79.586 0.063 C82 0.064 84.414 0.066 86.828 0.067 C91.744 0.069 96.659 0.072 101.575 0.075 C101.688 0.075 101.688 0.075 102.259 0.076 C117.292 0.085 132.325 0.101 147.358 0.118 C147.358 0.778 147.358 1.438 147.358 2.118 C147.238 2.186 147.118 2.255 146.994 2.326 C138.982 7.188 135.149 17.577 132.95 26.222 C131.506 32.455 131.746 39.006 131.75 45.366 C131.751 47.479 131.729 49.591 131.705 51.704 C131.665 55.468 131.641 59.232 131.629 62.996 C131.617 66.642 131.597 70.288 131.565 73.934 C131.563 74.16 131.562 74.387 131.56 74.62 C131.55 75.758 131.54 76.895 131.53 78.032 C131.448 87.394 131.393 96.756 131.358 106.118 C112.377 106.278 93.452 106.089 68.262 104.942 C67.009 104.883 65.755 104.826 64.501 104.769 C64.321 104.76 64.14 104.752 63.954 104.744 C63.773 104.736 63.592 104.727 63.406 104.719 C44.779 103.873 26.179 102.849 7.604 101.179 C6.93 101.118 6.255 101.059 5.58 100.999 C-3.921 100.158 -13.38 99.096 -22.82 97.724 C-23.461 97.631 -24.103 97.541 -24.745 97.45 C-39.952 95.301 -39.952 95.301 -44.668 89.774 C-44.896 89.509 -45.125 89.245 -45.355 88.983 C-46.725 87.421 -47.825 85.885 -48.723 84.011 C-48.812 83.828 -48.902 83.645 -48.994 83.456 C-51.415 78.501 -49.811 69.439 -49.849 63.964 C-49.87 61.153 -49.898 58.342 -49.944 55.531 C-50.338 31.059 -50.338 31.059 -45.642 22.118 C-45.526 21.894 -45.41 21.671 -45.291 21.44 C-41.284 13.764 -36.482 6.359 -28.899 1.863 C-28.663 1.723 -28.428 1.583 -28.185 1.439 C-21.666 -2.421 -7.642 -0.022 0 0 Z " fill="#525254" transform="translate(265.6421294747852,675.8823894714005)"/>
    <path d="M0 0 C0.33 0 0.66 0 1 0 C1 12.54 1 25.08 1 38 C6.94 38.33 12.88 38.66 19 39 C32.545 40.693 32.545 40.693 33.922 41.509 C35.279 42.245 36.798 42.209 38.306 42.316 C43.886 42.742 49.145 44.215 54.493 45.792 C55.539 46.099 56.586 46.397 57.637 46.687 C64.584 48.603 71.758 50.758 77 56 C77 57.98 77 59.96 77 62 C64.925 70.573 51.225 73.426 36.906 75.846 C35.952 76.008 34.998 76.172 34.044 76.335 C12.931 79.954 -8.192 82.765 -43.351 85.863 C-44.881 85.99 -46.411 86.119 -47.941 86.25 C-54.83 86.835 -61.722 87.363 -68.62 87.835 C-70.525 87.966 -72.429 88.103 -74.333 88.241 C-92.286 89.542 -110.248 90.349 -128.233 91.031 C-129.044 91.062 -129.854 91.093 -130.665 91.124 C-138.148 91.412 -145.632 91.672 -153.117 91.908 C-154.745 91.96 -156.373 92.012 -158 92.066 C-181.638 92.855 -205.265 93.142 -249.813 93.189 C-252.116 93.188 -254.419 93.187 -256.722 93.187 C-308.225 93.183 -308.225 93.183 -375.526 91.237 C-379.579 91.06 -383.633 90.892 -387.687 90.73 C-413.348 89.704 -438.986 88.358 -555.562 74.938 C-555.845 74.878 -556.128 74.818 -556.419 74.757 C-562.539 73.461 -568.542 71.929 -574.488 69.98 C-574.735 69.901 -574.982 69.821 -575.236 69.739 C-580.695 67.963 -586.051 65.262 -590 61 C-588.982 55.908 -588.982 55.908 -586.076 53.601 C-585.746 53.335 -585.419 53.065 -585.097 52.79 C-581.312 49.569 -576.684 48.356 -572 47 C-571.812 46.946 -571.625 46.891 -571.432 46.835 C-568.556 46.003 -565.66 45.265 -562.75 44.562 C-562.537 44.511 -562.324 44.459 -562.105 44.405 C-552.077 41.962 -541.914 40.571 -531.687 39.256 C-531.381 39.217 -531.076 39.177 -530.761 39.137 C-529.325 38.953 -527.889 38.771 -526.452 38.596 C-523.266 38.201 -520.137 37.68 -517 37 C-516.978 37.15 -516.978 37.15 -516.865 37.909 C-516.075 43.163 -515.259 47.626 -511.9 51.865 C-511.731 52.078 -511.563 52.291 -511.389 52.51 C-508.252 56.463 -501.34 57.89 -496.754 58.621 C-496.413 58.679 -496.072 58.738 -495.731 58.798 C-487.468 60.239 -479.13 61.09 -470.785 61.885 C-469.373 62.019 -467.961 62.16 -466.55 62.305 C-450.234 63.976 -433.874 65.031 -417.503 65.971 C-417.006 66 -416.509 66.028 -416.012 66.057 C-405.319 66.671 -394.623 67.177 -383.922 67.601 C-383.514 67.617 -383.107 67.633 -382.699 67.649 C-360.085 68.548 -337.465 69.037 -261.5 69.375 C-261.299 69.375 -261.098 69.375 -260.891 69.375 C-241.272 69.373 -221.654 69.323 -136.603 67.734 C-135.488 67.696 -134.373 67.658 -133.258 67.62 C-112.674 66.924 -92.149 65.762 -63.366 63.506 C-62.631 63.447 -61.895 63.388 -61.16 63.33 C-60.982 63.315 -60.804 63.301 -60.621 63.286 C-56.531 62.959 -52.439 62.656 -48.346 62.363 C-39.873 61.753 -31.537 60.748 -23.185 59.19 C-22.517 59.066 -21.849 58.943 -21.181 58.821 C-7.593 56.312 -7.593 56.312 -5.614 53.44 C-5.444 53.194 -5.275 52.947 -5.099 52.693 C-4.922 52.435 -4.745 52.178 -4.562 51.913 C-4.284 51.509 -4.006 51.106 -3.725 50.705 C-3.471 50.341 -3.222 49.973 -2.973 49.605 C-2.81 49.37 -2.648 49.134 -2.481 48.891 C-0.947 46.254 -0.836 43.492 -0.795 40.529 C-0.785 40.085 -0.775 39.641 -0.765 39.197 C-0.738 38.001 -0.717 36.805 -0.697 35.609 C-0.675 34.356 -0.647 33.103 -0.621 31.849 C-0.571 29.48 -0.526 27.111 -0.483 24.742 C-0.433 22.043 -0.378 19.344 -0.323 16.645 C-0.209 11.097 -0.102 5.548 0 0 Z " fill="#ECECEC" transform="translate(733,713)"/>
    <path d="M0 0 C18.183 -1.206 36.845 3.481 52.296 16.434 C54.821 18.657 57.196 21.028 59.536 23.445 C60.082 24.005 60.636 24.556 61.195 25.103 C68.661 32.439 74.266 42.543 77.572 52.433 C77.65 52.662 77.727 52.89 77.808 53.126 C80.341 60.745 80.271 68.63 80.197 76.558 C80.176 79.693 80.155 82.828 80.134 86.058 C76.009 86.223 76.009 86.223 55.134 87.058 C55.794 85.078 56.454 83.098 57.134 81.058 C57.387 79.904 57.601 78.85 57.736 77.691 C57.772 77.403 57.809 77.116 57.847 76.82 C58.278 73.202 58.473 69.575 58.509 65.933 C58.511 65.75 58.513 65.568 58.515 65.38 C58.6 53.872 54.562 43.95 46.621 35.573 C46.13 35.054 45.648 34.528 45.167 34 C40.737 29.211 35.846 26.134 29.884 23.62 C29.586 23.494 29.288 23.369 28.981 23.239 C22.802 20.676 17.25 19.781 10.572 19.745 C10.397 19.744 10.223 19.743 10.044 19.742 C-2.585 19.698 -13.079 24.289 -22.089 33.159 C-25.64 36.762 -28.474 40.661 -30.741 45.183 C-30.839 45.377 -30.936 45.571 -31.037 45.771 C-33.992 51.758 -35.236 57.76 -35.124 64.417 C-35.116 64.944 -35.109 65.471 -35.103 65.998 C-34.994 74.588 -33.557 81.045 -29.779 88.783 C-29.559 89.234 -29.34 89.686 -29.121 90.138 C-26.908 94.657 -24.221 98.349 -20.866 102.058 C-20.965 102.06 -20.965 102.06 -21.468 102.069 C-24.019 102.12 -26.567 102.202 -29.116 102.308 C-29.218 102.312 -29.218 102.312 -29.733 102.333 C-36.685 102.633 -42.821 103.685 -49.269 106.474 C-50.534 107.006 -51.493 107.141 -52.866 107.058 C-52.457 104.628 -51.983 102.278 -51.143 99.956 C-50.298 97.6 -49.662 95.322 -49.323 92.839 C-49.302 92.689 -49.302 92.689 -49.197 91.927 C-48.747 88.437 -48.573 84.95 -48.553 81.433 C-48.552 81.262 -48.551 81.091 -48.55 80.915 C-48.508 69.039 -52.357 59.151 -59.42 49.658 C-59.848 49.082 -60.269 48.503 -60.69 47.922 C-66.235 40.354 -74.154 35.553 -82.616 31.745 C-82.782 31.67 -82.949 31.594 -83.12 31.517 C-84.349 30.97 -85.598 30.504 -86.866 30.058 C-87.101 29.972 -87.336 29.886 -87.578 29.798 C-92.873 27.909 -97.922 27.654 -103.491 27.683 C-103.709 27.683 -103.927 27.684 -104.152 27.684 C-117.032 27.713 -127.625 31.033 -137.866 39.058 C-138.068 39.216 -138.271 39.374 -138.48 39.536 C-148.894 47.756 -155.996 61.301 -157.687 74.409 C-159.47 89.984 -155.542 105.481 -145.76 117.925 C-141.057 123.705 -135.389 128.477 -128.866 132.058 C-128.638 132.186 -128.41 132.315 -128.175 132.447 C-116.148 139.148 -102.149 137.558 -88.866 137.058 C-89.952 139.932 -91.061 142.656 -92.714 145.257 C-92.886 145.534 -93.058 145.811 -93.236 146.096 C-93.792 146.984 -94.359 147.865 -94.928 148.745 C-94.977 148.821 -94.977 148.821 -95.225 149.204 C-101.234 158.508 -107.503 166.504 -117.866 171.058 C-132.318 170.643 -148.056 167.306 -158.583 156.526 C-159.047 156.034 -159.475 155.536 -159.905 155.011 C-161.796 152.765 -164.15 151.973 -166.866 151.058 C-175.579 142.189 -182.319 132.488 -186.992 120.955 C-187.171 120.513 -187.352 120.072 -187.534 119.631 C-191.475 109.908 -193.443 100.083 -193.313 89.601 C-193.303 88.79 -193.298 87.98 -193.293 87.169 C-193.121 64.819 -184.387 45.427 -168.616 29.648 C-162.214 23.402 -154.815 19 -146.866 15.058 C-146.717 14.984 -146.569 14.91 -146.416 14.834 C-144.493 13.876 -142.556 12.952 -140.597 12.069 C-140.048 11.821 -139.5 11.57 -138.954 11.314 C-129.569 6.971 -118.722 6.645 -108.553 6.683 C-108.284 6.683 -108.015 6.683 -107.738 6.683 C-98.496 6.687 -90.358 7.49 -81.653 10.767 C-80.871 11.056 -80.086 11.327 -79.297 11.593 C-70.47 14.584 -63.273 19.542 -55.866 25.058 C-54.546 25.058 -53.226 25.058 -51.866 25.058 C-51.641 24.832 -51.417 24.607 -51.186 24.375 C-41.717 14.963 -30.125 7.381 -17.372 3.225 C-16.885 3.064 -16.4 2.897 -15.916 2.728 C-11.256 1.116 -6.546 0.388 -1.646 0.104 C-1.097 0.072 -0.548 0.037 0 0 Z " fill="#FDD033" transform="translate(692.8658447265625,141.942138671875)"/>
    <path d="M0 0 C0.99 0.002 1.98 -0.001 2.97 -0.004 C4.902 -0.008 6.834 -0.007 8.767 -0.005 C10.343 -0.002 11.919 -0.002 13.496 -0.003 C13.722 -0.003 13.948 -0.003 14.181 -0.004 C14.64 -0.004 15.1 -0.004 15.56 -0.005 C19.856 -0.007 24.153 -0.004 28.45 0.001 C32.108 0.006 35.767 0.005 39.425 0 C43.699 -0.005 47.974 -0.007 52.248 -0.004 C52.707 -0.004 53.167 -0.003 53.626 -0.003 C53.852 -0.003 54.078 -0.003 54.311 -0.003 C55.876 -0.002 57.441 -0.003 59.006 -0.006 C75.194 -0.028 75.194 -0.028 82.403 0.587 C82.641 0.607 82.879 0.627 83.124 0.648 C87.209 1.007 91.086 1.786 95.025 2.943 C95.499 3.077 95.972 3.211 96.446 3.344 C98.46 3.913 100.462 4.517 102.462 5.131 C102.731 5.212 102.999 5.293 103.275 5.376 C110.223 7.476 116.244 10.239 121.968 14.745 C122.44 15.113 122.918 15.471 123.398 15.827 C131.852 22.184 137.572 35.087 139.066 45.344 C139.236 46.604 139.367 47.863 139.462 49.131 C139.642 49.145 139.821 49.16 140.006 49.175 C144.53 49.573 148.822 50.414 153.212 51.568 C157.294 52.634 161.365 53.556 165.525 54.256 C165.744 54.294 165.964 54.332 166.19 54.372 C175.313 55.949 184.535 56.284 193.771 56.276 C195.222 56.276 196.673 56.281 198.124 56.286 C200.954 56.294 203.783 56.297 206.613 56.298 C208.926 56.298 211.238 56.3 213.551 56.303 C214.225 56.304 214.898 56.305 215.572 56.306 C215.739 56.306 215.907 56.307 216.08 56.307 C220.781 56.313 225.481 56.317 230.182 56.316 C230.359 56.316 230.535 56.316 230.717 56.316 C231.61 56.316 232.503 56.316 233.396 56.316 C233.573 56.316 233.75 56.316 233.933 56.316 C234.291 56.316 234.65 56.316 235.008 56.316 C240.549 56.315 246.089 56.323 251.629 56.337 C257.908 56.352 264.187 56.36 270.467 56.36 C271.145 56.359 271.822 56.359 272.5 56.359 C272.584 56.359 272.584 56.359 273.006 56.359 C275.463 56.359 277.92 56.365 280.376 56.373 C293.363 56.414 306.272 56.26 319.222 55.21 C319.48 55.189 319.739 55.169 320.005 55.147 C342.23 53.363 342.23 53.363 349.462 49.131 C350.452 49.131 351.442 49.131 352.462 49.131 C352.462 55.071 352.462 61.011 352.462 67.131 C226.402 67.131 100.342 67.131 -29.538 67.131 C-29.538 22.599 -29.538 22.599 -22.663 11.818 C-22.54 11.619 -22.418 11.419 -22.292 11.213 C-19.892 7.307 -16.99 4.13 -13.538 1.131 C-9.021 0.17 -4.599 -0.016 0 0 Z " fill="#FDBE25" transform="translate(304.5375533103943,596.8692753314972)"/>
    <path d="M0 0 C-0.66 0 -1.32 0 -2 0 C-2.022 0.107 -2.022 0.107 -2.131 0.649 C-2.959 4.341 -4.431 7.787 -5.843 11.288 C-8.664 18.303 -9.248 24.381 -9.25 31.875 C-9.25 32.107 -9.25 32.339 -9.25 32.578 C-9.238 54.21 -2.067 72.935 11 90 C11.19 90.248 11.38 90.497 11.576 90.753 C17.34 98.203 24.331 103.661 32 109 C28.642 115.716 20.6 120.068 14.585 124.563 C14.012 124.991 13.439 125.42 12.865 125.849 C0.841 134.844 -11.369 143.543 -23.737 152.06 C-26.33 153.845 -28.918 155.637 -31.498 157.44 C-33.268 158.676 -35.041 159.909 -36.816 161.138 C-37.844 161.851 -38.871 162.565 -39.895 163.285 C-40.838 163.948 -41.786 164.605 -42.736 165.258 C-43.078 165.494 -43.419 165.733 -43.758 165.974 C-46.084 167.623 -48.191 168.489 -51 169 C-51.02 168.84 -51.02 168.84 -51.12 168.029 C-53.622 148.284 -59.755 130.306 -73.472 115.572 C-73.978 115.024 -74.474 114.469 -74.967 113.909 C-80.705 107.411 -87.696 102.57 -95 98 C-95.216 97.865 -95.431 97.729 -95.653 97.59 C-104.223 92.258 -114.404 89.848 -124 87 C-120.872 83.823 -117.694 80.727 -114.375 77.75 C-114.163 77.56 -113.952 77.369 -113.734 77.173 C-110.288 74.077 -106.745 71.119 -103.142 68.208 C-98.833 64.723 -94.622 61.133 -90.438 57.5 C-90.276 57.36 -90.115 57.22 -89.95 57.076 C-85.177 52.933 -80.451 48.743 -75.768 44.499 C-73.213 42.184 -70.629 39.906 -68.02 37.654 C-66.254 36.126 -64.532 34.566 -62.844 32.953 C-47.796 18.664 -27.677 5.852 0 0 Z " fill="#FDD632" transform="translate(445,237)"/>
    <path d="M0 0 C4.112 2.159 6.751 4.637 9.663 8.213 C10.007 8.633 10.353 9.051 10.701 9.468 C15.168 14.829 19.395 20.374 23.605 25.938 C27.515 31.104 31.521 36.175 35.625 41.188 C36.707 42.51 37.789 43.833 38.871 45.156 C39.003 45.317 39.135 45.479 39.271 45.645 C42.117 49.127 44.912 52.648 47.688 56.188 C47.744 56.259 47.744 56.259 48.029 56.623 C51.587 61.161 55.108 65.728 58.617 70.304 C61.863 74.537 65.139 78.745 68.438 82.938 C68.552 83.083 68.666 83.228 68.783 83.377 C70.521 85.586 72.26 87.793 74 90 C75.855 92.353 77.71 94.707 79.562 97.062 C79.62 97.135 79.62 97.135 79.91 97.504 C83.44 101.992 86.939 106.503 90.414 111.034 C102.777 127.149 115.268 143.175 128 159 C128 159.66 128 160.32 128 161 C102.92 161 77.84 161 52 161 C47.38 154.73 42.76 148.46 38 142 C33.109 135.548 33.109 135.548 30.678 132.392 C25.884 126.171 21.148 119.92 16.625 113.5 C13.55 109.135 10.398 104.843 7.125 100.625 C7.023 100.494 6.922 100.363 6.817 100.228 C6.612 99.963 6.406 99.699 6.201 99.434 C5.679 98.762 5.158 98.09 4.637 97.418 C4.532 97.283 4.427 97.148 4.319 97.008 C1.615 93.52 -1.031 89.988 -3.675 86.455 C-4.063 85.937 -4.451 85.419 -4.838 84.901 C-6.96 82.068 -9.08 79.232 -11.198 76.396 C-17.207 68.349 -23.293 60.364 -29.401 52.393 C-31.51 49.641 -33.617 46.887 -35.723 44.133 C-35.875 43.934 -36.026 43.735 -36.183 43.531 C-36.933 42.549 -37.684 41.568 -38.434 40.586 C-39.701 38.93 -40.967 37.273 -42.234 35.617 C-42.827 34.842 -43.42 34.066 -44.013 33.291 C-44.205 33.04 -44.396 32.789 -44.594 32.531 C-44.728 32.356 -44.862 32.181 -45 32 C-44.886 31.718 -44.772 31.436 -44.655 31.146 C-43.19 27.508 -41.779 23.849 -40.375 20.188 C-40.143 19.584 -39.911 18.98 -39.68 18.377 C-39.119 16.918 -38.56 15.459 -38 14 C-37.906 13.976 -37.906 13.976 -37.428 13.852 C-31.541 12.252 -26.178 9.732 -20.75 7 C-20.401 6.825 -20.052 6.65 -19.703 6.475 C-6.817 0 -6.817 0 0 0 Z " fill="#5E5E5F" transform="translate(428,425)"/>
    <path d="M0 0 C-0.08 0.251 -0.161 0.501 -0.244 0.759 C-0.558 1.746 -0.866 2.734 -1.172 3.723 C-1.302 4.14 -1.434 4.557 -1.567 4.973 C-4.452 13.959 -5.414 22.782 -5.375 32.188 C-5.375 32.46 -5.374 32.733 -5.374 33.013 C-5.357 42.213 -4.704 50.437 -1.352 59.092 C-1.108 59.72 -0.869 60.348 -0.633 60.978 C4.49 74.674 12.028 85.303 22 96 C21.857 96.626 21.711 97.25 21.562 97.875 C21.523 98.049 21.484 98.223 21.443 98.402 C21.128 99.713 20.637 100.811 20 102 C19.974 103.884 19.957 105.768 19.945 107.652 C19.94 108.29 19.933 108.928 19.925 109.566 C19.868 113.825 20.141 117.825 21 122 C21.99 121.67 22.98 121.34 24 121 C24.216 121.307 24.432 121.614 24.655 121.93 C25.48 123.099 26.311 124.262 27.143 125.425 C27.499 125.923 27.853 126.422 28.205 126.923 C30.657 130.407 33.287 133.466 36.375 136.401 C36.987 136.987 37.587 137.582 38.185 138.182 C49.586 149.581 63.094 157.271 78.523 161.858 C78.986 161.996 79.448 162.136 79.91 162.275 C99.834 168.214 124.217 166.897 144 161 C144.179 160.947 144.357 160.894 144.541 160.839 C149.844 159.247 154.956 157.281 160 155 C160.079 154.964 160.079 154.964 160.481 154.783 C175.431 148.045 187.4 138.378 197 125 C197.159 124.78 197.318 124.56 197.482 124.334 C202.943 116.771 206.593 108.627 210 100 C214.81 104.68 214.81 104.68 216.781 107.105 C227.76 120.536 244.065 130.955 260.625 136 C260.791 136.051 260.958 136.101 261.129 136.154 C262.241 136.491 263.357 136.812 264.477 137.125 C264.745 137.201 265.013 137.276 265.289 137.354 C270.265 138.675 275.232 139.172 280.367 139.238 C280.659 139.243 280.951 139.248 281.252 139.253 C283.46 139.289 285.667 139.305 287.875 139.312 C288.199 139.314 288.524 139.315 288.858 139.316 C299.189 139.348 308.409 138.808 318.172 135.291 C319.004 134.999 319.84 134.728 320.681 134.465 C339.371 128.599 354.567 116.178 364 99 C364.108 98.805 364.216 98.61 364.328 98.41 C366.708 94.11 368.656 89.743 370 85 C370.66 85 371.32 85 372 85 C371.766 96.952 365.916 107.537 359 117 C358.855 117.199 358.711 117.398 358.562 117.603 C349.733 129.641 336.327 137.138 322.766 142.685 C322.089 142.963 321.415 143.247 320.742 143.534 C318.213 144.599 315.666 145.361 313 146 C312.868 146.032 312.868 146.032 312.203 146.196 C290.002 151.605 266.39 150.449 239.679 139.35 C238.97 138.985 238.258 138.63 237.544 138.275 C226.615 132.799 218.52 124.588 210 116 C209.95 116.099 209.95 116.099 209.694 116.603 C204.157 127.472 198.487 136.936 189.628 145.394 C189.031 145.97 188.446 146.555 187.865 147.146 C172.721 162.526 148.857 170.763 121 174 C120.813 174.011 120.626 174.023 120.433 174.035 C98.44 175.351 77.394 171.482 42.336 151.087 C40.961 149.941 39.517 148.949 38 148 C38 147.34 38 146.68 38 146 C37.01 145.67 36.02 145.34 35 145 C34.34 144.01 33.68 143.02 33 142 C32.769 142.034 32.769 142.034 31.602 142.206 C26.074 142.98 20.58 143.327 15 143.375 C14.774 143.377 14.548 143.379 14.315 143.382 C4.774 143.454 -3.225 141.658 -12 138 C-12.495 137.8 -12.99 137.601 -13.486 137.401 C-19.849 134.803 -25.054 130.923 -30.251 126.472 C-31.231 125.634 -32.221 124.823 -33.252 124.048 C-36.455 121.629 -38.922 118.969 -41.312 115.75 C-41.501 115.499 -41.69 115.247 -41.884 114.988 C-47.884 106.921 -52.764 97.419 -55.938 87.875 C-55.992 87.713 -56.046 87.55 -56.102 87.383 C-57.676 82.517 -58.167 77.375 -58.273 72.289 C-58.277 72.16 -58.277 72.16 -58.292 71.504 C-58.338 69.544 -58.362 67.585 -58.375 65.625 C-58.377 65.337 -58.379 65.049 -58.382 64.752 C-58.442 54.685 -57.474 45.971 -53.335 36.748 C-53.021 36.046 -52.718 35.342 -52.417 34.634 C-49.532 27.959 -44.634 22.706 -39.575 17.585 C-39.025 17.025 -38.481 16.46 -37.938 15.894 C-28.098 5.7 -14.226 -0.743 0 0 Z " fill="#49494B" transform="translate(506,198)"/>
    <path d="M0 0 C0.693 0.332 1.39 0.653 2.089 0.972 C16.302 7.555 27.06 19.324 32.622 33.988 C33.022 35.087 33.363 36.196 33.674 37.323 C33.725 37.506 33.776 37.69 33.829 37.879 C34.892 41.86 34.874 45.918 34.861 50.01 C34.861 50.186 34.861 50.362 34.861 50.543 C34.853 59.762 33.267 67.833 29.674 76.323 C29.393 76.463 29.112 76.603 28.823 76.747 C14.661 83.862 4.074 93.71 -5.326 106.323 C-8.582 107.053 -11.73 107.522 -15.064 107.631 C-15.28 107.639 -15.496 107.647 -15.718 107.655 C-17.358 107.711 -18.998 107.742 -20.639 107.76 C-20.881 107.763 -21.123 107.766 -21.372 107.769 C-34.945 107.887 -46.827 104.243 -56.868 94.745 C-57.457 94.202 -58.072 93.694 -58.691 93.185 C-66.881 86.404 -72.943 74.571 -75.326 64.323 C-75.371 64.141 -75.416 63.96 -75.462 63.773 C-79.05 49.103 -75.319 33.619 -67.693 20.913 C-62.247 11.99 -53.844 4.596 -44.326 0.323 C-44.101 0.22 -43.875 0.116 -43.643 0.01 C-30.661 -5.872 -12.906 -6.205 0 0 Z " fill="#FCFCFA" transform="translate(610.3260498046875,172.6771240234375)"/>
    <path d="M0 0 C6.563 5.16 11.619 11.401 15.301 18.881 C15.57 19.426 15.848 19.966 16.127 20.506 C20.383 28.923 19.772 41.661 17.775 50.712 C17.74 50.873 17.74 50.873 17.564 51.687 C16.794 54.559 15.181 56.981 13.588 59.462 C13.445 59.512 13.302 59.561 13.155 59.612 C2.625 63.266 -5.41 67.632 -13.725 75.025 C-13.932 75.208 -14.139 75.392 -14.353 75.581 C-17.401 78.305 -19.921 81.218 -22.412 84.462 C-32.412 84.462 -32.412 84.462 -34.947 83.036 C-36.117 82.396 -37.294 81.77 -38.475 81.15 C-38.628 81.069 -38.781 80.989 -38.94 80.906 C-44.077 78.223 -49.085 76.542 -54.787 75.525 C-54.871 75.51 -54.871 75.51 -55.294 75.434 C-57.328 75.074 -59.367 74.75 -61.412 74.462 C-66.044 69.304 -69.932 64.091 -72.85 57.775 C-72.975 57.511 -73.1 57.248 -73.229 56.977 C-76.263 50.515 -76.683 43.773 -76.725 36.712 C-76.725 36.626 -76.725 36.626 -76.728 36.19 C-76.76 29.328 -75.546 23.604 -72.412 17.462 C-72.306 17.248 -72.199 17.034 -72.089 16.814 C-66.27 5.146 -56.821 -3.88 -44.379 -8.221 C-29.777 -12.962 -12.016 -9.146 0 0 Z " fill="#FBFBFA" transform="translate(733.412109375,170.53778076171875)"/>
    <path d="M0 0 C10.874 -1.225 21.078 1.96 29.705 8.705 C37.325 14.843 43.083 24.563 44.248 34.312 C45.583 46.808 43.119 57.981 35.209 67.941 C31.421 72.504 26.631 75.537 21.33 78.08 C21.129 78.178 20.927 78.276 20.72 78.378 C12.296 82.423 -1.007 83.063 -9.913 80.05 C-11.962 79.278 -13.829 78.26 -15.67 77.08 C-15.878 76.947 -16.086 76.813 -16.301 76.676 C-22.778 72.455 -27.722 67.47 -31.361 60.646 C-31.663 60.093 -31.979 59.553 -32.303 59.014 C-37.134 50.846 -37.391 38.643 -35.356 29.486 C-34.674 26.933 -33.455 24.757 -31.993 22.578 C-31.529 21.863 -31.111 21.125 -30.688 20.387 C-25.28 10.999 -17.063 3.952 -6.516 1.097 C-4.369 0.553 -2.196 0.262 0 0 Z " fill="#5E5E5F" transform="translate(289.669921875,374.91998291015625)"/>
    <path d="M0 0 C4.137 2.168 6.794 4.681 9.726 8.276 C10.067 8.693 10.41 9.106 10.755 9.519 C28 30.184 28 30.184 28 34 C27.781 34.006 27.561 34.012 27.335 34.018 C-3.376 34.873 -3.376 34.873 -13 42 C-13.33 43.98 -13.66 45.96 -14 48 C-9.693 53.774 -5.374 59.535 -0.968 65.234 C3.597 71.136 8.089 77.091 12.562 83.062 C12.726 83.281 12.89 83.5 13.059 83.725 C14.816 86.071 16.573 88.419 18.329 90.766 C19.696 92.594 21.064 94.42 22.434 96.246 C22.61 96.481 22.787 96.717 22.968 96.959 C23.817 98.091 24.667 99.222 25.517 100.353 C27.372 102.821 29.22 105.295 31.06 107.775 C41.552 121.915 52.22 135.897 64 149 C71.581 149.972 79.122 150.218 86.76 150.24 C88.051 150.245 89.341 150.259 90.631 150.281 C104.199 150.513 104.199 150.513 109.379 147.372 C110.179 146.893 111.007 146.495 111.849 146.097 C112.574 145.747 113.286 145.371 114 145 C118 149 118 149 118 151 C118.66 151 119.32 151 120 151 C120.99 152.98 121.98 154.96 123 157 C122.67 157.33 122.34 157.66 122 158 C122.99 158.66 123.98 159.32 125 160 C100.91 160 76.82 160 52 160 C41.631 147.326 41.631 147.326 37.025 140.966 C36.148 139.757 35.267 138.553 34.385 137.348 C34.234 137.142 34.083 136.935 33.927 136.723 C33.621 136.305 33.315 135.887 33.009 135.469 C32.553 134.847 32.098 134.224 31.642 133.601 C28.871 129.814 26.065 126.054 23.244 122.303 C22.874 121.811 22.504 121.318 22.134 120.826 C21.029 119.357 19.925 117.888 18.82 116.419 C17.249 114.332 15.68 112.242 14.113 110.152 C14.053 110.072 14.053 110.072 13.75 109.668 C13.141 108.856 12.532 108.043 11.923 107.23 C10.812 105.75 9.702 104.269 8.591 102.789 C7.946 101.928 7.301 101.068 6.655 100.207 C6.385 99.847 6.115 99.487 5.846 99.127 C4.096 96.794 4.096 96.794 3.63 96.173 C3.313 95.751 2.997 95.329 2.68 94.907 C1.871 93.828 1.062 92.749 0.252 91.67 C-1.217 89.711 -2.686 87.752 -4.155 85.794 C-4.948 84.736 -5.742 83.679 -6.535 82.621 C-6.689 82.417 -6.842 82.212 -7 82.001 C-8.834 79.556 -10.667 77.109 -12.496 74.66 C-18.074 67.194 -23.732 59.791 -29.401 52.393 C-31.51 49.641 -33.617 46.887 -35.723 44.133 C-35.875 43.934 -36.026 43.735 -36.183 43.531 C-36.933 42.549 -37.684 41.568 -38.434 40.586 C-39.701 38.93 -40.967 37.273 -42.234 35.617 C-42.827 34.842 -43.42 34.066 -44.013 33.291 C-44.205 33.04 -44.396 32.789 -44.594 32.531 C-44.728 32.356 -44.862 32.181 -45 32 C-44.886 31.718 -44.772 31.436 -44.655 31.146 C-43.19 27.508 -41.779 23.849 -40.375 20.188 C-40.143 19.584 -39.911 18.98 -39.68 18.377 C-39.119 16.918 -38.56 15.459 -38 14 C-37.906 13.976 -37.906 13.976 -37.428 13.852 C-31.541 12.252 -26.178 9.732 -20.75 7 C-20.401 6.825 -20.052 6.65 -19.703 6.475 C-6.817 0 -6.817 0 0 0 Z " fill="#4A4A4B" transform="translate(428,425)"/>
    <path d="M0 0 C4.817 3.759 8.722 8.468 11.477 13.918 C11.556 14.074 11.636 14.231 11.718 14.392 C15.576 22.125 15.321 33.021 12.648 41.074 C9.64 49.506 3.12 57.618 -4.898 61.73 C-12.05 65.07 -20.039 66.89 -27.898 65.73 C-28.099 65.701 -28.3 65.672 -28.507 65.642 C-37.297 64.285 -45.895 59.045 -51.242 51.927 C-52.533 50.123 -53.609 48.213 -54.626 46.246 C-54.881 45.764 -55.15 45.296 -55.429 44.828 C-59.284 38.202 -59.326 27.297 -57.712 19.871 C-56.906 16.948 -55.565 14.256 -53.898 11.73 C-53.777 11.983 -53.655 12.235 -53.529 12.496 C-52.455 14.697 -51.311 16.807 -49.961 18.855 C-49.804 19.107 -49.648 19.358 -49.486 19.617 C-48.124 21.691 -47.153 22.228 -44.898 23.73 C-35.898 23.73 -35.898 23.73 -30.898 19.73 C-29.898 17.73 -29.898 17.73 -29.898 9.73 C-34.898 3.73 -34.898 3.73 -43.898 0.73 C-41.753 -1.663 -39.836 -3.501 -36.961 -4.957 C-36.847 -5.017 -36.847 -5.017 -36.269 -5.318 C-24.893 -10.74 -9.649 -7.277 0 0 Z " fill="#3D3D3E" transform="translate(614.8984375,197.26953125)"/>
    <path d="M0 0 C10.075 1.679 15.756 12.499 21.635 20.503 C22.292 21.398 22.95 22.293 23.608 23.188 C23.893 23.575 24.177 23.962 24.461 24.349 C25.801 26.171 27.14 27.994 28.48 29.816 C28.939 30.439 29.397 31.062 29.855 31.686 C33.561 36.727 37.293 41.742 41.125 46.688 C44.703 51.307 48.245 55.95 51.75 60.625 C51.874 60.79 51.997 60.955 52.125 61.124 C55.278 65.329 58.411 69.55 61.523 73.785 C61.672 73.987 61.82 74.189 61.973 74.397 C63.173 76.029 64.372 77.662 65.571 79.295 C70.944 86.612 76.416 93.843 82 101 C82 101.99 82 102.98 82 104 C57.826 104.862 57.826 104.862 48.675 100.322 C47.979 99.99 47.274 99.691 46.56 99.397 C36.294 95.141 30.879 87.149 24.688 78.376 C23.004 75.99 21.269 73.643 19.523 71.301 C18.937 70.513 18.35 69.725 17.764 68.937 C17.691 68.839 17.691 68.839 17.323 68.345 C14.524 64.581 11.763 60.79 9 57 C8.856 56.803 8.713 56.606 8.565 56.404 C1.242 46.361 -5.991 36.264 -13 26 C-12 21 -12 21 -11.047 19.855 C-6.967 14.765 -4.974 9.162 -3 3 C-2.01 2.01 -1.02 1.02 0 0 Z " fill="#FDD644" transform="translate(389,471)"/>
    <path d="M0 0 C2.777 0.002 5.554 -0.007 8.331 -0.017 C14.087 -0.036 19.843 -0.042 25.6 -0.043 C30.052 -0.044 34.504 -0.048 38.956 -0.054 C40.245 -0.056 41.533 -0.058 42.822 -0.059 C42.982 -0.06 42.982 -0.06 43.793 -0.061 C52.791 -0.073 61.789 -0.081 70.787 -0.08 C71.129 -0.08 71.47 -0.08 71.812 -0.08 C73.355 -0.08 74.897 -0.08 76.439 -0.079 C77.127 -0.079 77.814 -0.079 78.502 -0.079 C78.846 -0.079 79.19 -0.079 79.534 -0.079 C90.396 -0.078 101.258 -0.092 112.12 -0.12 C114.854 -0.127 117.588 -0.134 120.322 -0.141 C120.491 -0.141 120.659 -0.142 120.833 -0.142 C129.982 -0.164 139.132 -0.168 148.281 -0.166 C149.572 -0.166 150.863 -0.166 152.154 -0.166 C152.472 -0.166 152.789 -0.166 153.117 -0.166 C158.182 -0.166 163.247 -0.178 168.311 -0.196 C173.423 -0.213 178.534 -0.215 183.646 -0.202 C186.403 -0.195 189.16 -0.194 191.917 -0.212 C202.207 -0.276 212.243 -0.062 222.369 1.931 C222.987 2.053 223.605 2.171 224.223 2.288 C232.657 3.923 239.881 7.726 247.09 12.291 C246.43 12.951 245.77 13.611 245.09 14.291 C244.721 14.15 244.352 14.009 243.972 13.864 C238.437 11.93 233.01 11.996 227.207 12.012 C225.732 12.014 224.258 12.004 222.783 11.995 C220.205 11.982 217.627 11.977 215.049 11.976 C212.287 11.975 209.524 11.969 206.761 11.959 C206.674 11.959 206.674 11.959 206.23 11.957 C205.337 11.953 204.443 11.95 203.549 11.946 C197.099 11.921 190.649 11.905 184.199 11.895 C177.816 11.884 171.433 11.87 165.05 11.85 C164.951 11.849 164.951 11.849 164.448 11.848 C162.634 11.842 160.82 11.836 159.006 11.83 C154.498 11.816 149.99 11.802 145.481 11.789 C145.276 11.788 145.071 11.787 144.859 11.787 C134.887 11.757 124.915 11.735 114.943 11.713 C111.484 11.706 108.026 11.698 104.567 11.691 C104.353 11.69 104.138 11.69 103.917 11.689 C93.936 11.667 83.955 11.639 73.974 11.611 C73.326 11.609 72.677 11.607 72.029 11.605 C67.732 11.593 63.435 11.58 59.138 11.568 C50.589 11.543 42.039 11.519 33.49 11.494 C33.083 11.493 32.676 11.492 32.269 11.491 C13.954 11.44 -4.36 11.394 -22.675 11.352 C-22.761 11.351 -22.761 11.351 -23.194 11.35 C-31.766 11.33 -40.338 11.311 -48.91 11.291 C-48.441 10.808 -47.971 10.326 -47.499 9.845 C-47.368 9.709 -47.237 9.573 -47.102 9.433 C-45.878 8.192 -44.575 7.448 -42.976 6.756 C-42.698 6.632 -42.42 6.508 -42.133 6.38 C-41.544 6.12 -40.953 5.864 -40.361 5.612 C-39.498 5.24 -38.647 4.848 -37.794 4.454 C-25.975 -0.8 -12.638 -0.013 0 0 Z " fill="#717274" transform="translate(463.9095752313733,664.7085492080078)"/>
    <path d="M0 0 C5.342 -0.073 10.683 -0.129 16.025 -0.17 C19.026 -0.194 22.027 -0.227 25.027 -0.283 C43.287 -0.621 57.563 1.252 73.389 11.123 C73.389 12.113 73.389 13.103 73.389 14.123 C55.621 14.219 37.852 14.314 20.084 14.409 C19.951 14.409 19.951 14.409 19.28 14.413 C13.503 14.444 7.727 14.474 1.95 14.505 C-0.885 14.52 -3.72 14.535 -6.555 14.55 C-6.837 14.551 -7.119 14.553 -7.41 14.554 C-16.456 14.602 -25.503 14.651 -34.55 14.7 C-43.892 14.75 -53.234 14.8 -62.576 14.849 C-63.913 14.856 -65.25 14.863 -66.587 14.87 C-66.85 14.872 -67.113 14.873 -67.384 14.875 C-71.268 14.895 -75.152 14.916 -79.036 14.937 C-84.915 14.97 -90.793 15.001 -96.672 15.031 C-96.905 15.032 -97.139 15.033 -97.379 15.034 C-117.123 15.134 -136.867 15.148 -156.611 15.123 C-153.99 9.881 -148.472 6.897 -142.898 4.862 C-140.204 4.004 -137.409 3.502 -134.611 3.123 C-134.611 2.463 -134.611 1.803 -134.611 1.123 C-123.484 1.026 -112.358 0.93 -101.231 0.837 C-101.062 0.835 -100.894 0.834 -100.72 0.832 C-97.046 0.802 -93.372 0.771 -89.698 0.74 C-87.892 0.725 -86.087 0.71 -84.281 0.695 C-84.192 0.695 -84.192 0.695 -83.737 0.691 C-78.585 0.648 -73.432 0.604 -68.279 0.559 C-65.347 0.533 -62.415 0.508 -59.483 0.483 C-58.966 0.478 -58.449 0.474 -57.932 0.469 C-50.174 0.402 -42.415 0.339 -34.657 0.29 C-34.14 0.287 -33.622 0.284 -33.105 0.281 C-30.017 0.261 -26.928 0.242 -23.839 0.224 C-15.892 0.177 -7.946 0.109 0 0 Z " fill="#FDDC56" transform="translate(565.6110897026956,584.877382459119)"/>
    <path d="M0 0 C2.879 2.46 5.243 5.417 7.388 8.523 C7.512 8.701 7.635 8.879 7.762 9.063 C12.371 15.865 12.63 24.414 11.248 32.324 C9.785 39.509 5.974 46.738 -0.213 50.93 C-8.555 56.199 -18.275 58.372 -28.062 56.239 C-34.759 54.537 -41.716 50.209 -45.421 44.276 C-47.064 41.491 -48.458 38.543 -49.612 35.523 C-49.701 35.293 -49.791 35.063 -49.883 34.826 C-50.549 32.999 -50.783 31.351 -50.815 29.414 C-50.822 29.126 -50.828 28.838 -50.835 28.541 C-50.852 27.618 -50.859 26.696 -50.862 25.773 C-50.864 25.46 -50.866 25.147 -50.869 24.825 C-50.883 19.818 -50.404 15.785 -47.612 11.523 C-46.348 13.389 -45.135 15.271 -43.987 17.21 C-43.853 17.435 -43.719 17.66 -43.58 17.892 C-43.257 18.435 -42.934 18.979 -42.612 19.523 C-40.612 20.523 -40.612 20.523 -31.612 20.523 C-27.612 16.523 -27.612 16.523 -26.612 9.523 C-30.612 4.523 -30.612 4.523 -38.612 1.523 C-28.967 -8.121 -10.99 -8.572 0 0 Z " fill="#3D3D3E" transform="translate(723.6116943359375,185.47711181640625)"/>
    <path d="M0 0 C0.99 0.33 1.98 0.66 3 1 C1 4 1 4 -0.25 4.594 C-9.878 9.456 -15.803 17.808 -21 27 C-21.121 27.213 -21.242 27.426 -21.367 27.646 C-24.19 32.634 -26.404 37.763 -28.25 43.188 C-28.292 43.308 -28.292 43.308 -28.502 43.916 C-30.701 50.351 -31.214 56.859 -31.188 63.625 C-31.187 63.796 -31.187 63.967 -31.186 64.144 C-31.123 85.308 -24.299 103.782 -9.191 118.843 C2.117 129.914 17.931 138.354 34.07 138.263 C36.051 138.23 38.025 138.143 40 138 C40.079 137.873 40.158 137.747 40.239 137.616 C41.079 136.267 41.924 134.92 42.771 133.575 C43.084 133.076 43.396 132.577 43.708 132.077 C45.927 128.51 48.322 125.24 51 122 C52.485 121.835 52.485 121.835 60 121 C58.481 125.24 56.376 128.92 53.938 132.688 C53.889 132.763 53.889 132.763 53.641 133.147 C47.632 142.45 41.363 150.446 31 155 C16.548 154.585 0.81 151.248 -9.717 140.468 C-10.181 139.976 -10.609 139.478 -11.039 138.954 C-12.93 136.707 -15.284 135.915 -18 135 C-26.714 126.131 -33.453 116.431 -38.126 104.898 C-38.305 104.455 -38.487 104.014 -38.668 103.573 C-42.609 93.85 -44.577 84.025 -44.447 73.543 C-44.437 72.733 -44.432 71.922 -44.427 71.111 C-44.255 48.787 -35.549 29.22 -19.662 13.546 C-13.768 7.864 -7.228 3.773 0 0 Z " fill="#FBB823" transform="translate(544,158)"/>
    <path d="M0 0 C-0.33 1.32 -0.66 2.64 -1 4 C-1.66 4 -2.32 4 -3 4 C-3.33 4.99 -3.66 5.98 -4 7 C-4.175 7.124 -4.351 7.248 -4.531 7.376 C-12.03 12.844 -16.845 20.599 -20.312 29.125 C-20.388 29.307 -20.463 29.489 -20.541 29.676 C-23.579 37.156 -24.317 44.783 -24.196 52.77 C-24.185 53.657 -24.185 54.544 -24.186 55.432 C-24.185 61.67 -23.733 67.807 -23 74 C-27.959 76.347 -32.96 77.983 -38.261 79.363 C-39.089 79.578 -39.914 79.8 -40.739 80.029 C-45.922 81.464 -50.582 82.404 -56 82 C-56.165 82.33 -56.165 82.33 -57 84 C-57.744 80.086 -58.19 76.271 -58.273 72.289 C-58.277 72.16 -58.277 72.16 -58.292 71.504 C-58.338 69.544 -58.362 67.585 -58.375 65.625 C-58.377 65.337 -58.379 65.049 -58.382 64.752 C-58.442 54.685 -57.474 45.971 -53.335 36.748 C-53.021 36.046 -52.718 35.342 -52.417 34.634 C-49.532 27.959 -44.634 22.706 -39.575 17.585 C-39.025 17.025 -38.481 16.46 -37.938 15.894 C-28.067 5.668 -14.251 -0.682 0 0 Z " fill="#5A5A5B" transform="translate(506,198)"/>
    <path d="M0 0 C7.082 -0.023 14.165 -0.041 21.247 -0.051 C22.095 -0.052 22.943 -0.054 23.792 -0.055 C23.96 -0.055 24.129 -0.055 24.303 -0.056 C26.822 -0.06 29.342 -0.067 31.862 -0.075 C58.047 -0.164 58.047 -0.164 69.616 0.607 C70.308 0.653 70.999 0.698 71.691 0.744 C71.776 0.75 71.776 0.75 72.208 0.778 C77.042 1.094 81.884 1.201 86.727 1.316 C86.839 1.319 86.839 1.319 87.41 1.333 C90.125 1.398 92.841 1.459 95.557 1.517 C97.906 1.568 100.254 1.623 102.603 1.677 C107.402 1.788 112.201 1.896 117 2 C122 6 122 6 123 9 C83.4 9 43.8 9 3 9 C1.68 7.02 0.36 5.04 -1 3 C-0.67 2.01 -0.34 1.02 0 0 Z " fill="#F6A11A" transform="translate(320,576)"/>
  </g>

</svg>