<svg xmlns="http://www.w3.org/2000/svg" viewBox="0 0 1024 1024" width="512" height="512">
  <g id="shadow">
    <path d="M0 0 C0.33 0 0.66 0 1 0 C1 12.54 1 25.08 1 38 C6.94 38.33 12.88 38.66 19 39 C32.33 40.67 32.33 40.67 35 42 C36.28 42.12 37.55 42.24 38.87 42.36 C44.8 42.97 50.36 44.58 56.06 46.25 C57.1 46.54 58.14 46.82 59.21 47.12 C65.62 48.99 72.15 51.15 77 56 C77.56 58.75 77.56 58.75 77 62 C67.14 71.88 49.13 73.78 36 76 C35.68 76.06 35.68 76.06 34.04 76.34 C7.8 80.83 -18.47 83.79 -45 86 C-46.27 86.11 -47.54 86.22 -48.85 86.33 C-56.23 86.95 -63.61 87.49 -71 88 C-71.55 88.04 -71.55 88.04 -74.33 88.24 C-92.56 89.55 -110.8 90.37 -129.06 91.06 C-130.11 91.1 -131.16 91.14 -132.23 91.18 C-140.16 91.49 -148.08 91.75 -156 92 C-157.35 92.04 -158.71 92.09 -160.06 92.13 C-190.95 93.15 -221.84 93.2 -252.75 93.19 C-254.74 93.19 -256.73 93.19 -258.72 93.19 C-298.29 93.18 -337.8 92.89 -377.34 91.16 C-381.11 91 -384.88 90.84 -388.65 90.69 C-567.53 83.47 -567.53 83.47 -590 61 C-590.12 58.75 -590.12 58.75 -589 56 C-574.44 41.29 -543.95 40.76 -524.9 38.4 C-522.24 38.03 -519.63 37.56 -517 37 C-516.9 37.65 -516.8 38.3 -516.7 38.98 C-515.76 44.49 -514.8 48.69 -511 53 C-506.25 56.07 -502.39 57.64 -496.75 58.62 C-496.07 58.74 -495.38 58.86 -494.68 58.98 C-486.96 60.26 -479.19 61.08 -471.41 61.83 C-468.99 62.06 -466.58 62.3 -464.16 62.55 C-380.26 70.92 -295.37 69.77 -135.25 67.69 C-134.38 67.66 -133.5 67.63 -132.6 67.6 C-108.74 66.78 -84.96 65.24 -61.16 63.33 C-56.43 62.95 -51.69 62.6 -46.95 62.26 C-38.71 61.64 -30.62 60.57 -22.5 59.06 C-22.07 58.98 -22.07 58.98 -19.91 58.58 C-7.7 56.15 -7.7 56.15 -3.62 51 C-1.64 47.33 -0.88 44.64 -0.79 40.53 C-0.77 39.63 -0.75 38.73 -0.73 37.8 C-0.72 36.83 -0.7 35.86 -0.68 34.86 C-0.66 33.87 -0.64 32.87 -0.62 31.85 C-0.56 28.67 -0.5 25.49 -0.44 22.31 C-0.39 20.16 -0.35 18 -0.31 15.85 C-0.2 10.57 -0.1 5.28 0 0 Z " fill="#ECECEC" transform="translate(733,713)"/>
  </g>

  <g id="base">
    <path d="M0 0 C1.68 -0 3.35 -0.01 5.03 -0.02 C9.58 -0.04 14.13 -0.03 18.68 -0.01 C23.61 -0.01 28.54 -0.02 33.47 -0.03 C43.11 -0.05 52.74 -0.04 62.38 -0.03 C70.22 -0.02 78.06 -0.02 85.9 -0.03 C87.02 -0.03 88.13 -0.03 89.29 -0.03 C91.56 -0.03 93.83 -0.03 96.11 -0.03 C117.39 -0.04 138.67 -0.03 159.96 -0.01 C178.18 0.01 196.41 0 214.64 -0.01 C235.85 -0.04 257.05 -0.04 278.26 -0.03 C280.52 -0.03 282.79 -0.03 285.06 -0.03 C286.17 -0.03 287.28 -0.03 288.43 -0.03 C296.25 -0.02 304.07 -0.03 311.89 -0.04 C321.44 -0.05 330.98 -0.05 340.52 -0.02 C345.38 -0.01 350.25 -0.01 355.11 -0.02 C412.91 -0.17 412.91 -0.17 433.59 20.06 C442.66 30.7 446.15 42.17 446.11 55.92 C446.12 56.98 446.12 58.03 446.13 59.12 C446.13 61.33 446.13 63.54 446.12 65.76 C446.11 69.13 446.14 72.5 446.17 75.88 C446.18 78.04 446.18 80.2 446.17 82.36 C446.18 83.36 446.2 84.36 446.21 85.39 C446.14 92.36 444.92 97.78 440.26 103.13 C430.31 111.76 408.35 110.94 395.93 112.07 C394.68 112.19 393.42 112.3 392.14 112.42 C365.15 114.77 338.12 116.18 311.05 117.13 C310.6 117.15 310.6 117.15 308.29 117.23 C222.8 120.22 136.58 120.56 28.68 115.51 C27.51 115.45 26.35 115.38 25.16 115.32 C5.44 114.25 -14.2 112.66 -33.82 110.51 C-34.54 110.43 -35.27 110.35 -36.01 110.27 C-61.34 107.49 -61.34 107.49 -67.65 99.91 C-71.61 94.19 -72.05 89.49 -71.95 82.65 C-71.95 81.62 -71.96 80.6 -71.96 79.54 C-71.96 77.38 -71.94 75.22 -71.92 73.06 C-71.89 69.78 -71.9 66.51 -71.92 63.23 C-71.91 47.83 -70.24 36.46 -61.32 23.51 C-60.92 22.89 -60.51 22.28 -60.1 21.65 C-46.6 3.6 -20.83 -0.13 0 0 Z " fill="#636365" transform="translate(287.3230743408203,664.4920654296875)"/>
    <path d="M0 0 C1.6 0 3.2 0 4.79 -0 C9.09 -0 13.39 0.01 17.68 0.01 C22.19 0.02 26.69 0.02 31.2 0.02 C39.71 0.02 48.23 0.03 56.74 0.04 C66.44 0.05 76.14 0.06 85.84 0.06 C105.78 0.07 125.72 0.09 145.65 0.11 C145.65 0.77 145.65 1.43 145.65 2.11 C144.95 2.61 144.25 3.1 143.53 3.61 C135.29 10.78 131.04 22.53 130.27 33.24 C130.05 37.9 130.05 42.56 130.04 47.23 C130.03 48.93 130.01 50.64 129.99 52.35 C129.95 56.8 129.93 61.25 129.91 65.7 C129.9 70.26 129.85 74.82 129.81 79.38 C129.74 88.29 129.69 97.2 129.65 106.11 C108.76 106.28 87.95 105.94 67.08 104.96 C64.92 104.86 62.76 104.76 60.6 104.66 C42.11 103.82 23.65 102.77 5.22 101.11 C4.34 101.04 3.47 100.96 2.56 100.88 C-6.73 100.04 -15.97 98.95 -25.2 97.6 C-26.03 97.48 -26.86 97.36 -27.71 97.24 C-35.04 96.12 -42.23 94.9 -47.35 89.11 C-50.06 85.05 -51.59 82.37 -51.64 77.44 C-51.65 76.52 -51.66 75.6 -51.68 74.65 C-51.68 73.66 -51.68 72.67 -51.68 71.64 C-51.69 70.61 -51.7 69.58 -51.7 68.52 C-51.71 66.33 -51.72 64.15 -51.72 61.96 C-51.72 58.65 -51.76 55.34 -51.8 52.04 C-51.89 34.25 -49.33 20.14 -36.82 6.58 C-27.54 -2.67 -12.3 -0.03 0 0 Z " fill="#525254" transform="translate(267.346923828125,675.886474609375)"/>
    <path d="M0 0 C2.26 -0.01 4.51 -0.01 6.77 -0.02 C12.86 -0.04 18.96 -0.04 25.06 -0.04 C28.88 -0.05 32.7 -0.05 36.52 -0.05 C49.19 -0.07 61.86 -0.08 74.52 -0.08 C75.2 -0.08 75.88 -0.08 76.59 -0.08 C76.93 -0.08 76.93 -0.08 78.65 -0.08 C89.68 -0.08 100.71 -0.1 111.74 -0.13 C123.11 -0.16 134.48 -0.17 145.85 -0.17 C152.21 -0.17 158.58 -0.17 164.94 -0.19 C170.94 -0.21 176.94 -0.21 182.93 -0.2 C185.12 -0.2 187.3 -0.2 189.48 -0.21 C200.02 -0.27 210.2 0.04 220.57 2.06 C221.36 2.21 222.15 2.36 222.97 2.52 C230.95 4.26 237.78 8 244.66 12.29 C244 12.95 243.34 13.61 242.66 14.29 C242.2 14.13 242.2 14.13 239.89 13.31 C234.63 11.82 229.35 12 223.92 12.01 C222.74 12.01 221.56 12 220.35 11.99 C217.09 11.98 213.84 11.98 210.58 11.97 C207.07 11.97 203.55 11.95 200.03 11.94 C193.94 11.92 187.86 11.9 181.77 11.89 C172.96 11.88 164.16 11.85 155.36 11.83 C141.08 11.78 126.79 11.74 112.51 11.71 C98.64 11.68 84.77 11.65 70.89 11.61 C70.04 11.61 69.18 11.6 68.3 11.6 C64.01 11.59 59.72 11.58 55.43 11.56 C19.84 11.46 -15.75 11.37 -51.34 11.29 C-48.51 8.27 -45.72 6.89 -41.9 5.23 C-40.77 4.72 -39.64 4.21 -38.47 3.69 C-26.2 -0.85 -12.87 -0.01 0 0 Z " fill="#717274" transform="translate(466.341796875,664.70947265625)"/>
    <path d="M0 0 C2.31 0 4.62 0 7 0 C6.12 3.88 6.12 3.88 5 5 C3 5.04 1 5.04 -1 5 C-0.67 3.35 -0.34 1.7 0 0 Z " fill="#888889" transform="translate(378,691)"/>
    <path d="M0 0 C3.97 2.86 6.62 5.7 9 10 C8.67 10.99 8.34 11.98 8 13 C4.82 9.11 1.89 5.1 -1 1 C-0.67 0.67 -0.34 0.34 0 0 Z " fill="#6F6F70" transform="translate(718,683)"/>
    <path d="M0 0 C6.27 0 12.54 0 19 0 C19 0.33 19 0.66 19 1 C15.87 1.33 15.87 1.33 0 3 C0 2.01 0 1.02 0 0 Z " fill="#7D7F82" transform="translate(657,665)"/>
    <path d="M0 0 C1.25 1.56 1.25 1.56 2 4 C0.93 6.57 -0.47 8.65 -2 11 C-2.66 11 -3.32 11 -4 11 C-3.39 6.87 -1.96 3.67 0 0 Z " fill="#5F5E61" transform="translate(223,692)"/>
    <path d="M0 0 C1.94 0.38 1.94 0.38 4 1 C4.33 1.66 4.66 2.32 5 3 C-0.94 3 -6.88 3 -13 3 C-13 2.67 -13 2.34 -13 2 C-8.71 2 -4.42 2 0 2 C0 1.34 0 0.68 0 0 Z " fill="#656566" transform="translate(356,778)"/>
    <path d="M0 0 C-0.99 1.32 -1.98 2.64 -3 4 C-4.32 3.67 -5.64 3.34 -7 3 C-7 2.34 -7 1.68 -7 1 C-3.38 -1.12 -3.38 -1.12 0 0 Z " fill="#6F6F71" transform="translate(251,672)"/>
  </g>

  <g id="base-plate">
    <path d="M0 0 C0.4 -0 0.4 -0 2.4 -0.01 C5 -0.01 7.61 -0.01 10.21 -0 C12.03 -0 13.86 -0.01 15.68 -0.01 C19.5 -0.01 23.32 -0.01 27.15 -0 C32.01 0 36.88 0 41.75 -0 C45.52 -0.01 49.29 -0.01 53.05 -0 C54.85 -0 56.64 -0 58.43 -0.01 C80.41 -0.03 103.79 1.03 121.89 15.13 C122.49 15.58 123.1 16.04 123.72 16.51 C132.64 24.22 137.92 37.63 138.89 49.13 C139.43 49.18 139.43 49.18 142.14 49.44 C145.73 49.88 149.14 50.66 152.64 51.57 C166.31 55.09 179.95 56.28 194.03 56.27 C195.19 56.28 196.36 56.28 197.55 56.28 C201.37 56.29 205.18 56.3 208.99 56.3 C210.99 56.3 213 56.3 215 56.3 C221.3 56.31 227.6 56.32 233.9 56.31 C240.33 56.31 246.75 56.32 253.18 56.34 C258.75 56.35 264.32 56.36 269.89 56.36 C273.2 56.36 276.5 56.36 279.8 56.37 C334.21 56.52 334.21 56.52 348.89 49.13 C349.88 49.13 350.87 49.13 351.89 49.13 C351.89 55.07 351.89 61.01 351.89 67.13 C225.83 67.13 99.77 67.13 -30.11 67.13 C-30.11 17.86 -30.11 17.86 -17.11 3.57 C-12.03 -0.56 -6.31 -0.02 0 0 Z " fill="#FDBE25" transform="translate(305.10986328125,596.87060546875)"/>
    <path d="M0 0 C5.79 -0.08 11.59 -0.13 17.38 -0.18 C19.76 -0.2 22.14 -0.23 24.53 -0.28 C42.84 -0.59 56.97 1.31 72.89 11.13 C72.89 12.12 72.89 13.11 72.89 14.13 C48.51 14.26 24.13 14.39 -0.24 14.52 C-11.57 14.58 -22.89 14.64 -34.21 14.7 C-44.1 14.76 -53.99 14.81 -63.88 14.86 C-69.1 14.89 -74.32 14.92 -79.54 14.94 C-105.4 15.09 -131.25 15.16 -157.11 15.13 C-154.54 9.43 -149.66 7.61 -144.11 5.13 C-141.09 4.21 -138.24 3.64 -135.11 3.13 C-135.11 2.47 -135.11 1.81 -135.11 1.13 C-119.78 1 -104.45 0.87 -89.12 0.74 C-81.99 0.68 -74.87 0.62 -67.74 0.56 C-64.98 0.53 -62.23 0.51 -59.47 0.48 C-58.78 0.48 -58.1 0.47 -57.4 0.47 C-49.81 0.4 -42.23 0.34 -34.64 0.29 C-33.96 0.29 -33.28 0.29 -32.57 0.28 C-29.83 0.26 -27.08 0.25 -24.34 0.23 C-16.23 0.18 -8.11 0.11 0 0 Z " fill="#FDDC56" transform="translate(566.1117296218872,584.8705458641052)"/>
    <path d="M0 0 C7.25 -0.02 14.5 -0.04 21.75 -0.05 C25.12 -0.06 28.49 -0.06 31.86 -0.08 C58 -0.16 58 -0.16 69.64 0.62 C75.28 1 80.9 1.11 86.55 1.18 C88.34 1.2 90.13 1.22 91.91 1.25 C94.64 1.28 97.37 1.31 100.09 1.33 C102.79 1.34 105.48 1.38 108.18 1.43 C108.99 1.42 109.8 1.42 110.64 1.42 C114.57 1.5 116.57 1.74 119.99 3.85 C122 6 122 6 123 9 C107.42 9.14 91.85 9.25 76.27 9.31 C69.04 9.34 61.8 9.38 54.57 9.45 C48.27 9.51 41.96 9.55 35.66 9.56 C32.32 9.57 28.98 9.59 25.65 9.63 C21.92 9.68 18.2 9.68 14.47 9.68 C13.36 9.7 12.25 9.72 11.11 9.75 C8.28 9.72 5.76 9.65 3 9 C0.22 6.14 0.22 6.14 -1 3 C-0.67 2.01 -0.34 1.02 0 0 Z " fill="#F6A11A" transform="translate(320,576)"/>
    <path d="M0 0 C0.32 0.44 0.32 0.44 1.97 2.68 C2.73 3.56 3.5 4.45 4.28 5.36 C5.97 7.68 5.97 7.68 5.97 9.68 C-45.84 9.68 -97.65 9.68 -151.03 9.68 C-151.03 9.35 -151.03 9.02 -151.03 8.68 C-131.4 8.51 -131.4 8.51 -32.03 7.68 C-37.66 2.05 -37.66 2.05 -41.36 2.02 C-42.18 2 -43 1.98 -43.85 1.96 C-44.72 1.96 -45.59 1.96 -46.49 1.97 C-47.39 1.95 -48.29 1.94 -49.22 1.92 C-52.1 1.88 -54.97 1.87 -57.84 1.86 C-59.8 1.84 -61.75 1.81 -63.7 1.79 C-68.48 1.72 -73.25 1.69 -78.03 1.68 C-78.03 1.35 -78.03 1.02 -78.03 0.68 C-77.49 0.67 -76.94 0.66 -76.38 0.64 C-70.67 0.54 -64.96 0.42 -59.24 0.3 C-57.12 0.26 -54.99 0.22 -52.86 0.18 C-49.79 0.12 -46.72 0.06 -43.66 -0.01 C-42.71 -0.02 -41.77 -0.04 -40.8 -0.06 C-35.47 -0.18 -30.31 -0.59 -25.03 -1.32 C-21.31 -1.7 -17.58 -1.96 -13.84 -2.2 C-12.87 -2.28 -11.9 -2.37 -10.9 -2.46 C-3.77 -2.89 -3.77 -2.89 0 0 Z " fill="#FBB520" transform="translate(474.03125,576.32421875)"/>
    <path d="M0 0 C4.97 3.46 8.65 7.99 12 13 C12 13.66 12 14.32 12 15 C-13.08 15 -38.16 15 -64 15 C-64 14.67 -64 14.34 -64 14 C-56.08 13.67 -48.16 13.34 -40 13 C-40 12.67 -40 12.34 -40 12 C-32.41 11.84 -32.41 11.84 6 11 C5.67 10.5 5.67 10.5 4 8 C4 7.01 4 6.02 4 5 C3.34 5 2.68 5 2 5 C1.67 4.17 1.67 4.17 0 0 Z " fill="#786B4B" transform="translate(544,571)"/>
    <path d="M0 0 C6.54 9.81 5.37 23 5.19 34.31 C5.17 35.94 5.16 37.57 5.15 39.19 C5.11 43.13 5.06 47.06 5 51 C4.67 51 4.34 51 4 51 C4 39.78 4 28.56 4 17 C3.34 17 2.68 17 2 17 C1.67 17.66 1.34 18.32 1 19 C-2.59 5.17 -2.59 5.17 0 0 Z " fill="#FDDF63" transform="translate(653,614)"/>
    <path d="M0 0 C3.63 2.65 5.9 5.02 8 9 C7.01 9 6.02 9 5 9 C4.67 7.68 4.34 6.36 4 5 C3.34 5 2.68 5 2 5 C1.34 3.35 0.68 1.7 0 0 Z " fill="#565559" transform="translate(544,571)"/>
    <path d="M0 0 C2 1.81 2 1.81 4 4 C4 4.99 4 5.98 4 7 C2.02 7 0.04 7 -2 7 C-1.01 6.67 -0.02 6.34 1 6 C0.67 4.02 0.34 2.04 0 0 Z " fill="#F4CC38" transform="translate(467,568)"/>
    <path d="M0 0 C2.65 2.58 4.94 4.92 7 8 C6.01 8 5.02 8 4 8 C4 7.34 4 6.68 4 6 C3.34 6 2.68 6 2 6 C0 3 0 3 0 0 Z " fill="#656467" transform="translate(524,545)"/>
    <path d="M0 0 C3 1 3 1 4.19 3.06 C4.46 3.7 4.72 4.34 5 5 C4.67 5.16 4.67 5.16 3 6 C2.01 5.67 1.02 5.34 0 5 C0 3.35 0 1.7 0 0 Z " fill="#F3D03D" transform="translate(432,523)"/>
  </g>

  <g id="lower-arm" style="transform-origin: 340px 530px">
    <path d="M0 0 C3.23 1.08 3.66 1.52 5.57 4.14 C6.05 4.79 6.53 5.44 7.02 6.11 C7.28 6.47 7.28 6.47 8.56 8.25 C9.65 9.73 10.74 11.21 11.82 12.68 C12.36 13.42 12.9 14.16 13.46 14.91 C15.55 17.75 17.71 20.53 19.88 23.31 C24.63 29.46 29.23 35.72 33.83 41.99 C37.17 46.54 40.54 51.04 44 55.5 C47.96 60.61 51.81 65.79 55.62 71 C60.72 77.95 65.89 84.84 71.12 91.69 C71.79 92.56 72.46 93.43 73.14 94.33 C75.72 97.7 78.29 101.08 80.87 104.45 C82.59 106.69 84.29 108.94 86 111.19 C86.51 111.85 87.02 112.52 87.55 113.2 C91 117.77 91 117.77 91 120 C91.83 119.99 92.66 119.97 93.51 119.96 C112.91 119.67 132.32 119.4 151.72 119.18 C153.47 119.16 155.21 119.14 156.96 119.12 C157.81 119.11 158.66 119.1 159.54 119.09 C164.97 119.03 170.41 118.95 175.84 118.87 C182.3 118.78 188.76 118.71 195.22 118.66 C197.55 118.64 199.87 118.61 202.19 118.57 C221.63 118.24 240.4 120.49 255.45 134.31 C272.19 152.48 269 175.05 269 199 C142.61 199 16.22 199 -114 199 C-114 148.22 -114 148.22 -100.19 133.75 C-91.77 125.88 -81.59 119.8 -69.69 119.75 C-68.8 119.83 -67.91 119.91 -67 120 C-66.67 119.34 -66.34 118.68 -66 118 C-26.73 118 12.54 118 53 118 C47.43 112.43 47.43 112.43 41.95 112.33 C41.56 112.34 41.56 112.34 39.6 112.36 C39.19 112.36 39.19 112.36 37.11 112.34 C35.34 112.32 33.58 112.31 31.81 112.31 C29.04 112.31 26.27 112.27 23.51 112.21 C15.71 112.06 7.92 111.97 0.12 112.11 C-19.46 112.41 -19.46 112.41 -25.05 108.61 C-28.75 104.7 -30.62 99.98 -32.63 95.05 C-35.13 89.47 -38.4 84.31 -41.55 79.08 C-43.36 76.07 -45.12 73.02 -46.89 69.98 C-48.97 66.4 -51.09 62.84 -53.3 59.33 C-53.67 58.73 -54.04 58.14 -54.43 57.53 C-55.46 55.9 -56.5 54.27 -57.54 52.64 C-59 50 -59 50 -59 47 C-58.03 46.62 -57.07 46.25 -56.07 45.86 C-43.95 41.12 -33.35 36.04 -23 28 C-22.35 27.51 -21.7 27.01 -21.03 26.5 C-13.14 20.17 -7.6 11.68 -2.35 3.15 C-1 1 -1 1 0 0 Z " fill="#FDD534" transform="translate(389,466)"/>
    <path d="M0 0 C3.23 1.08 3.66 1.52 5.57 4.14 C6.05 4.79 6.53 5.44 7.02 6.11 C7.28 6.47 7.28 6.47 8.56 8.25 C9.65 9.73 10.74 11.21 11.82 12.68 C12.36 13.42 12.9 14.16 13.46 14.91 C15.55 17.75 17.71 20.53 19.88 23.31 C24.63 29.46 29.23 35.72 33.83 41.99 C37.17 46.54 40.54 51.04 44 55.5 C47.96 60.61 51.81 65.79 55.62 71 C60.72 77.95 65.89 84.84 71.12 91.69 C71.79 92.56 72.46 93.43 73.14 94.33 C75.72 97.7 78.29 101.08 80.87 104.45 C82.59 106.69 84.29 108.94 86 111.19 C86.51 111.85 87.02 112.52 87.55 113.2 C91 117.77 91 117.77 91 120 C39.19 120 -12.62 120 -66 120 C-66 119.67 -66 119.34 -66 119 C-46.37 118.84 -46.37 118.84 53 118 C47.43 112.43 47.43 112.43 41.95 112.33 C41.17 112.34 40.4 112.35 39.6 112.36 C39.19 112.36 39.19 112.36 37.11 112.34 C35.34 112.32 33.58 112.31 31.81 112.31 C29.04 112.31 26.27 112.27 23.51 112.21 C15.71 112.06 7.92 111.97 0.12 112.11 C-19.46 112.41 -19.46 112.41 -25.05 108.61 C-28.75 104.7 -30.62 99.98 -32.63 95.05 C-35.13 89.47 -38.4 84.31 -41.55 79.08 C-43.36 76.07 -45.12 73.02 -46.89 69.98 C-48.97 66.4 -51.09 62.84 -53.3 59.33 C-53.67 58.73 -54.04 58.14 -54.43 57.53 C-55.46 55.9 -56.5 54.27 -57.54 52.64 C-59 50 -59 50 -59 47 C-58.03 46.62 -57.07 46.25 -56.07 45.86 C-43.95 41.12 -33.35 36.04 -23 28 C-22.35 27.51 -21.7 27.01 -21.03 26.5 C-13.14 20.17 -7.6 11.68 -2.35 3.15 C-1 1 -1 1 0 0 Z " fill="#FDC126" transform="translate(389,466)"/>
    <path d="M0 0 C4.9 1.79 7.14 5.12 10.25 9.19 C10.89 10.02 11.54 10.86 12.2 11.72 C14.58 14.85 16.92 18.02 19.25 21.19 C19.78 21.91 20.31 22.63 20.86 23.38 C21.43 24.15 22 24.93 22.59 25.73 C23.79 27.36 24.99 28.99 26.19 30.62 C26.79 31.45 27.4 32.27 28.02 33.12 C32.2 38.79 36.46 44.4 40.77 49.97 C48.74 60.28 56.45 70.79 64.15 81.3 C66.84 84.96 69.55 88.6 72.36 92.18 C72.83 92.77 73.3 93.37 73.78 93.99 C75.03 95.57 76.29 97.15 77.55 98.72 C79.25 101.19 79.25 101.19 79.25 104.19 C55.17 105.02 55.17 105.02 45.25 100.19 C44.28 99.78 43.32 99.38 42.32 98.96 C32.92 94.4 27.81 86.87 21.94 78.56 C19.68 75.38 17.34 72.26 15.01 69.12 C8.16 59.9 1.42 50.59 -5.27 41.24 C-6.69 39.26 -8.14 37.3 -9.6 35.35 C-10.44 34.19 -11.28 33.03 -12.12 31.88 C-12.85 30.89 -13.58 29.9 -14.34 28.89 C-15.75 26.19 -15.75 26.19 -15.62 23.53 C-14.57 20.72 -12.89 18.66 -11.08 16.29 C-8.98 12.98 -7.92 9.36 -6.74 5.64 C-5.24 1.93 -4.08 0.28 0 0 Z " fill="#FDD644" transform="translate(391.75,470.8125)"/>
    <path d="M0 0 C3.74 1.25 4.19 2.63 6 6 C5.67 6.17 5.67 6.17 4 7 C4 6.34 4 5.68 4 5 C2.02 5.33 0.04 5.66 -2 6 C-2.19 6.59 -2.39 7.18 -2.59 7.79 C-2.85 8.58 -3.11 9.37 -3.38 10.19 C-3.63 10.96 -3.89 11.74 -4.15 12.54 C-5.74 17.13 -7.58 21.17 -10.12 25.31 C-10.66 26.2 -11.2 27.08 -11.76 27.99 C-11.96 28.32 -11.96 28.32 -13 30 C-14.32 28.35 -15.64 26.7 -17 25 C-15.98 21.37 -14.31 19.1 -11.81 16.38 C-8.1 12.31 -5.26 7.91 -2.38 3.22 C-1 1 -1 1 0 0 Z " fill="#FCCF31" transform="translate(389,466)"/>
    <path d="M0 0 C3.93 1.31 5.37 3.82 7.69 7.06 C8.1 7.63 8.52 8.2 8.95 8.78 C9.97 10.18 10.99 11.59 12 13 C11.34 13.66 10.68 14.32 10 15 C8.67 13.67 7.33 12.33 6 11 C5.44 10.5 4.89 10.01 4.31 9.5 C2.73 7.69 2.5 6.33 2 4 C1.36 2.65 0.7 1.31 0 0 Z " fill="#F4CE3D" transform="translate(396,475)"/>
    <path d="M0 0 C3.02 2.18 5.86 4.46 8.68 6.9 C9.54 7.64 10.41 8.37 11.29 9.13 C24.4 21.26 34.6 39.78 35.89 57.81 C36.69 83.47 33.44 103.76 16.68 123.9 C16.21 124.5 15.74 125.11 15.26 125.73 C3.95 139.84 -13.97 149.18 -31.58 152.52 C-36.46 153.02 -41.29 153.08 -46.19 153.09 C-47.13 153.1 -48.08 153.11 -49.05 153.12 C-54.39 153.13 -59.22 152.7 -64.39 151.34 C-67.05 150.73 -69.6 150.76 -72.32 150.9 C-72.32 150.24 -72.32 149.58 -72.32 148.9 C-73.55 148.55 -74.79 148.2 -76.07 147.84 C-94.02 141.74 -109.17 126.87 -118.07 110.4 C-127.38 90.28 -130.96 64.83 -123.83 43.43 C-118.14 30.14 -111.9 18.89 -101.32 8.9 C-100.63 8.23 -99.94 7.56 -99.23 6.86 C-72.09 -18.34 -30.65 -19.42 0 0 Z " fill="#FDD833" transform="translate(342.31640625,345.1015625)"/>
    <path d="M0 0 C0.69 1.69 0.69 1.69 1 4 C-0.73 7.82 -2.25 9.31 -6 11 C-5.19 9.35 -4.38 7.71 -3.56 6.06 C-3.11 5.15 -2.66 4.23 -2.19 3.29 C-1 1 -1 1 0 0 Z " fill="#FDDB43" transform="translate(231,365)"/>
    <path d="M0 0 C2.65 2.58 4.94 4.92 7 8 C4 8 4 8 1.31 5.5 C0.55 4.68 -0.21 3.85 -1 3 C-0.67 2.01 -0.34 1.02 0 0 Z " fill="#F1D438" transform="translate(320,382)"/>
    <path d="M0 0 C2.53 3.79 2.22 6.81 2.12 11.19 C2.12 11.94 2.11 12.69 2.1 13.46 C2.07 15.31 2.04 17.15 2 19 C1.67 19 1.34 19 1 19 C0.98 18.65 0.98 18.65 0.85 16.88 C0.81 16.43 0.81 16.43 0.62 14.12 C0.56 13.22 0.49 12.32 0.41 11.38 C0 9 0 9 -2 7 C-1.34 4.69 -0.68 2.38 0 0 Z " fill="#EDC93C" transform="translate(252,403)"/>
    <path d="M0 0 C1.79 2.69 2.66 4.66 3.62 7.69 C3.89 8.5 4.15 9.3 4.41 10.14 C4.61 10.75 4.8 11.37 5 12 C1.24 10.53 1.24 10.53 0.14 8.12 C0.06 7.77 0.06 7.77 -0.31 6 C-0.47 5.3 -0.63 4.6 -0.8 3.88 C-1 2 -1 2 0 0 Z " fill="#F2CE36" transform="translate(254,425)"/>
    <path d="M0 0 C0.97 0.87 1.94 1.73 2.94 2.62 C7.75 6.75 12.94 10.98 19 13 C18.67 14.32 18.34 15.64 18 17 C10.59 14.25 5.61 10.45 1 4 C0.3 1.75 0.3 1.75 0 0 Z " fill="#FBD739" transform="translate(262,441)"/>
    <path d="M0 0 C3.81 3.21 7.55 6.41 11 10 C10.34 10 9.68 10 9 10 C8.67 10.66 8.34 11.32 8 12 C6.85 10.76 5.7 9.51 4.56 8.25 C3.92 7.55 3.29 6.86 2.63 6.14 C1.01 4.01 0.42 2.61 0 0 Z " fill="#F0CE39" transform="translate(262,441)"/>
    <path d="M0 0 C0.66 1.32 1.32 2.64 2 4 C1.34 4.66 0.68 5.32 0 6 C-2.12 5.62 -2.12 5.62 -4 5 C-3.67 4.34 -3.34 3.68 -3 3 C-2.34 3 -1.68 3 -1 3 C-0.67 2.01 -0.34 1.02 0 0 Z " fill="#EDCC38" transform="translate(323,443)"/>
    <path d="M0 0 C0.64 -0.01 1.28 -0.02 1.94 -0.02 C7.39 1.03 10.64 4.88 14 9 C14.47 9.56 14.94 10.13 15.42 10.71 C19.77 15.98 23.9 21.41 28.02 26.86 C31.79 31.84 35.67 36.73 39.62 41.56 C47.67 51.4 55.5 61.4 63.23 71.48 C68.1 77.82 73.05 84.1 78 90.38 C83.71 97.62 89.41 104.88 95.02 112.2 C102.91 122.48 110.88 132.69 118.88 142.88 C119.1 143.16 119.1 143.16 120.21 144.58 C123.63 148.93 127.11 153.22 130.64 157.48 C132 159.38 132 159.38 132 161.38 C122.33 161.82 112.67 162.15 103 162.36 C98.5 162.46 94.02 162.59 89.53 162.81 C60.65 164.17 60.65 164.17 53.08 159.62 C48.49 155.35 45.69 150.35 43.1 144.69 C41.6 141.53 39.7 139.12 37.48 136.42 C36.86 135.6 36.23 134.79 35.59 133.95 C34.98 133.16 34.38 132.37 33.75 131.56 C28.86 125.18 24.07 118.76 19.44 112.19 C16.37 107.85 13.16 103.62 9.89 99.41 C6.53 95.08 3.22 90.7 -0.06 86.31 C-0.57 85.63 -1.08 84.95 -1.61 84.24 C-3.84 81.26 -6.07 78.28 -8.3 75.29 C-12.04 70.29 -15.81 65.31 -19.6 60.35 C-20.7 58.91 -21.79 57.47 -22.89 56.03 C-25.8 52.2 -28.76 48.42 -31.79 44.68 C-32.4 43.92 -33.01 43.16 -33.64 42.37 C-34.82 40.9 -36.01 39.44 -37.21 38 C-38.67 36.16 -39.96 34.47 -41 32.38 C-40.48 29.8 -40.48 29.8 -39 27.38 C-38.68 26.31 -38.36 25.25 -38.03 24.15 C-35.15 15.18 -35.15 15.18 -32.23 13.14 C-30.19 12.56 -30.19 12.56 -27.87 12.11 C-23.87 11.09 -20.41 9.25 -16.75 7.38 C-16.06 7.03 -15.38 6.68 -14.67 6.33 C-11.79 4.86 -9.01 3.38 -6.27 1.65 C-3.93 0.34 -2.64 -0.03 0 0 Z " fill="#5E5E60" transform="translate(424,424.625)"/>
    <path d="M0 0 C0.64 -0.01 1.28 -0.02 1.94 -0.02 C7.42 1.04 10.68 4.93 14.06 9.06 C14.53 9.62 14.99 10.18 15.47 10.75 C19.32 15.44 23.03 20.23 26.69 25.06 C27.22 25.76 27.75 26.45 28.29 27.17 C32 32.13 32 32.13 32 34.38 C30.72 34.41 29.44 34.45 28.12 34.49 C-0.56 35.5 -0.56 35.5 -9 42.38 C-9.91 45.16 -9.91 45.16 -10 48.38 C-8.48 51.13 -8.48 51.13 -6.19 53.94 C-5.78 54.46 -5.36 54.97 -4.94 55.51 C-4.07 56.6 -3.19 57.68 -2.31 58.77 C-0.28 61.26 1.67 63.82 3.62 66.38 C4.03 66.9 4.43 67.42 4.84 67.95 C10.75 75.62 16.53 83.39 22.33 91.14 C25.07 94.81 27.82 98.48 30.58 102.14 C32.53 104.75 34.48 107.37 36.42 109.98 C43.95 120.1 51.6 130.07 59.68 139.75 C60.83 141.17 61.93 142.63 63.01 144.11 C66.78 149.06 66.78 149.06 69.99 149.88 C77.56 150.43 85.11 150.59 92.69 150.62 C93.97 150.65 95.25 150.67 96.56 150.69 C103.16 150.71 108.21 150.65 114 147.38 C114.8 146.98 115.61 146.59 116.44 146.19 C116.7 146.05 116.7 146.05 118 145.38 C119.38 146.66 120.71 148 122 149.38 C122 150.03 122 150.69 122 151.38 C122.66 151.38 123.32 151.38 124 151.38 C124.99 153.36 125.98 155.34 127 157.38 C126.67 157.71 126.34 158.03 126 158.38 C126.99 159.03 127.98 159.69 129 160.38 C119.64 160.63 110.28 160.83 100.91 160.94 C96.56 161 92.22 161.08 87.87 161.2 C83.67 161.32 79.47 161.39 75.26 161.42 C73.67 161.44 72.07 161.48 70.47 161.54 C57.99 161.99 57.99 161.99 53.08 158.02 C50.78 155.24 48.87 152.45 47 149.38 C45.84 147.81 44.67 146.25 43.48 144.71 C42.38 143.2 41.28 141.7 40.19 140.19 C38.98 138.53 37.76 136.87 36.55 135.22 C35.95 134.4 35.36 133.59 34.74 132.75 C32.15 129.21 29.51 125.7 26.88 122.19 C26.39 121.54 25.9 120.89 25.39 120.22 C24.41 118.91 23.43 117.61 22.45 116.31 C20.03 113.08 17.61 109.85 15.19 106.62 C14.2 105.3 13.2 103.98 12.21 102.66 C5.23 93.34 5.23 93.34 3.27 90.74 C1.97 89 0.67 87.26 -0.64 85.52 C-5.92 78.48 -5.92 78.48 -8.5 75.04 C-12.17 70.12 -15.87 65.23 -19.59 60.36 C-20.69 58.91 -21.79 57.47 -22.89 56.03 C-25.8 52.2 -28.76 48.42 -31.79 44.68 C-32.4 43.92 -33.01 43.16 -33.64 42.37 C-34.82 40.9 -36.01 39.44 -37.21 38 C-38.67 36.16 -39.96 34.47 -41 32.38 C-40.48 29.8 -40.48 29.8 -39 27.38 C-38.68 26.31 -38.36 25.25 -38.03 24.15 C-35.15 15.18 -35.15 15.18 -32.23 13.14 C-30.19 12.56 -30.19 12.56 -27.87 12.11 C-23.87 11.09 -20.41 9.25 -16.75 7.38 C-16.06 7.03 -15.38 6.68 -14.67 6.33 C-11.79 4.86 -9.01 3.38 -6.27 1.65 C-3.93 0.34 -2.64 -0.03 0 0 Z " fill="#4C4C4E" transform="translate(424,424.625)"/>
    <path d="M0 0 C0.64 -0.01 1.28 -0.02 1.94 -0.02 C7.42 1.04 10.68 4.93 14.06 9.06 C14.53 9.62 14.99 10.18 15.47 10.75 C19.32 15.44 23.03 20.23 26.69 25.06 C27.22 25.76 27.75 26.45 28.29 27.17 C32 32.13 32 32.13 32 34.38 C30.72 34.41 29.44 34.45 28.12 34.49 C2.3 35.4 2.3 35.4 -9 42.38 C-11.94 42.62 -11.94 42.62 -14 42.38 C-14 43.03 -14 43.69 -14 44.38 C-15.81 44.54 -15.81 44.54 -25 45.38 C-24.01 46.69 -23.02 48.01 -22 49.38 C-21.66 50.71 -21.32 52.04 -21 53.38 C-20.34 53.7 -19.68 54.03 -19 54.38 C-18.86 54.97 -18.71 55.56 -18.57 56.17 C-17.87 58.87 -16.65 60.44 -14.94 62.62 C-14.66 62.98 -14.66 62.98 -13.28 64.77 C-12.86 65.3 -12.43 65.83 -12 66.38 C-12.33 67.03 -12.66 67.69 -13 68.38 C-18.79 61.47 -24.31 54.41 -29.67 47.16 C-32.96 42.71 -36.39 38.41 -40.09 34.27 C-41 32.38 -41 32.38 -40.29 30.05 C-39.87 29.17 -39.44 28.28 -39 27.38 C-38.68 26.31 -38.36 25.25 -38.03 24.15 C-35.15 15.18 -35.15 15.18 -32.23 13.14 C-30.19 12.56 -30.19 12.56 -27.87 12.11 C-23.87 11.09 -20.41 9.25 -16.75 7.38 C-16.06 7.03 -15.38 6.68 -14.67 6.33 C-11.79 4.86 -9.01 3.38 -6.27 1.65 C-3.93 0.34 -2.64 -0.03 0 0 Z " fill="#474747" transform="translate(424,424.625)"/>
    <path d="M0 0 C0.33 0 0.66 0 1 0 C0.73 6.46 -1.41 10.44 -6 15 C-9.49 17.67 -13.01 20.15 -17 22 C-17.99 21.67 -18.98 21.34 -20 21 C-19.34 21 -18.68 21 -18 21 C-17.67 19.68 -17.34 18.36 -17 17 C-15.35 16.67 -13.7 16.34 -12 16 C-11.73 15.07 -11.46 14.14 -11.19 13.19 C-10.09 10.24 -9.51 8.81 -7 7 C-6.01 7 -5.02 7 -4 7 C-3.53 6.03 -3.05 5.06 -2.56 4.06 C-1 1 -1 1 0 0 Z " fill="#535354" transform="translate(328,431)"/>
    <path d="M0 0 C4.32 3.34 7.17 6.33 10 11 C9.01 11 8.02 11 7 11 C5.79 9.54 5.79 9.54 4.62 7.62 C2.48 4.4 0.86 2.99 -3 2 C-2.01 1.34 -1.02 0.68 0 0 Z " fill="#534E43" transform="translate(430,426)"/>
    <path d="M0 0 C8.94 7.67 13.94 17.74 14.86 29.38 C15.17 42.32 11.58 52.85 2.62 62.38 C-8.29 71.3 -19.71 73.47 -33.44 72.58 C-42.95 71.58 -51.19 65.37 -57.2 58.21 C-58.76 55.99 -60.09 53.76 -61.38 51.38 C-61.79 50.67 -62.2 49.97 -62.62 49.25 C-66.97 40.56 -66.91 28.81 -64.68 19.46 C-63.75 17.25 -62.69 15.37 -61.38 13.38 C-60.94 12.62 -60.5 11.87 -60.05 11.09 C-54.21 1.52 -46.01 -5.03 -35.12 -7.88 C-22.03 -10.32 -10.81 -7.96 0 0 Z " fill="#5E5E5F" transform="translate(319.375,383.625)"/>
    <path d="M0 0 C0.98 3.05 0.98 4.95 0 8 C0.66 8 1.32 8 2 8 C2 12.62 2 17.24 2 22 C1.01 22 0.02 22 -1 22 C-1.03 18.9 -1.05 15.79 -1.06 12.69 C-1.07 11.81 -1.08 10.93 -1.09 10.02 C-1.09 9.17 -1.09 8.32 -1.1 7.45 C-1.1 6.67 -1.11 5.89 -1.11 5.08 C-1 3 -1 3 0 0 Z " fill="#5D6064" transform="translate(255,403)"/>
    <path d="M0 0 C0.33 1.32 0.66 2.64 1 4 C-1.64 6.31 -4.28 8.62 -7 11 C-7.66 10.67 -8.32 10.34 -9 10 C-7.62 6.79 -6.08 4.95 -3.38 2.75 C-2.74 2.23 -2.11 1.71 -1.46 1.17 C-1.22 0.98 -1.22 0.98 0 0 Z " fill="#6B6861" transform="translate(271,382)"/>
    <path d="M0 0 C0.98 3.05 0.98 4.95 0 8 C0.66 8 1.32 8 2 8 C1.67 10.97 1.34 13.94 1 17 C0.67 17 0.34 17 0 17 C-0.19 14.73 -0.38 12.46 -0.56 10.19 C-0.67 8.92 -0.77 7.66 -0.88 6.36 C-1 3 -1 3 0 0 Z " fill="#716E62" transform="translate(255,403)"/>
  </g>

  <g id="upper-arm" style="transform-origin: 340px 345px">
    <path d="M0 0 C-0.66 0 -1.32 0 -2 0 C-2.06 0.26 -2.06 0.26 -2.34 1.6 C-3.49 5.79 -5.24 9.77 -6.84 13.81 C-13.35 31.76 -8.62 53.93 -1.08 70.79 C6.46 86.64 17.72 99 32 109 C30.46 113.52 26.77 115.7 23.06 118.38 C22.35 118.9 21.64 119.42 20.91 119.95 C19.39 121.07 17.86 122.18 16.34 123.29 C14.05 124.96 11.79 126.64 9.52 128.34 C-1.86 136.83 -13.47 144.99 -25.17 153.04 C-27.97 154.98 -30.75 156.92 -33.54 158.87 C-35.26 160.06 -36.97 161.25 -38.69 162.44 C-39.47 162.99 -40.25 163.54 -41.06 164.1 C-41.79 164.6 -42.51 165.11 -43.26 165.62 C-43.58 165.84 -43.58 165.84 -45.17 166.95 C-47.1 168.06 -48.82 168.57 -51 169 C-51.1 168.22 -51.2 167.45 -51.3 166.65 C-54.03 146.91 -60.37 129.74 -74 115 C-74.62 114.3 -75.25 113.59 -75.89 112.87 C-89.08 98.73 -105.94 92.4 -124 87 C-116.75 79.68 -109.05 73 -101.05 66.52 C-92.23 59.25 -83.66 51.65 -75.19 43.98 C-72.5 41.55 -69.77 39.17 -67.03 36.8 C-65.61 35.54 -64.22 34.26 -62.84 32.95 C-51.57 22.35 -16.64 -6.66 0 0 Z " fill="#FDD632" transform="translate(445,237)"/>
    <path d="M0 0 C0.98 0.36 1.97 0.72 2.98 1.09 C15.93 5.53 28.88 6.47 42.43 4.33 C46 4 46 4 49 6.31 C51 9 51 9 51 11 C51.33 11.17 51.33 11.17 53 12 C52.66 12.18 52.66 12.18 50.95 13.12 C47.27 15.47 44.13 18.23 40.88 21.12 C39.53 22.31 38.18 23.49 36.83 24.67 C36.17 25.24 35.51 25.82 34.84 26.41 C31.61 29.2 28.3 31.89 24.98 34.58 C21.27 37.6 17.57 40.64 13.88 43.69 C12.4 44.9 10.93 46.11 9.46 47.32 C6.54 49.73 3.62 52.14 0.69 54.55 C-17.64 69.68 -36.13 84.55 -55 99 C-55.78 98.21 -56.55 97.42 -57.36 96.61 C-61.1 92.91 -63.35 91.15 -68.67 90.66 C-73.6 90.73 -76.86 92.74 -80.94 95.31 C-93.79 103 -93.79 103 -100 103 C-100 102.34 -100 101.68 -100 101 C-97.63 99.42 -95.26 97.95 -92.81 96.5 C-85.69 92.17 -79.11 87.45 -72.59 82.26 C-69.84 80.08 -67.04 77.95 -64.25 75.81 C-61.47 73.68 -58.69 71.54 -55.93 69.38 C-50.63 65.23 -45.25 61.22 -39.81 57.25 C-7.69 33.66 -7.69 33.66 0 23 C0 22.34 0 21.68 0 21 C-0.93 20.52 -1.85 20.04 -2.81 19.54 C-4.02 18.9 -5.23 18.26 -6.44 17.62 C-7.05 17.31 -7.66 16.99 -8.29 16.66 C-12.89 14.23 -12.89 14.23 -14 12 C-13.15 11.46 -12.31 10.93 -11.44 10.38 C-2.06 4.12 -2.06 4.12 0 0 Z " fill="#F7AC1C" transform="translate(493,335)"/>
    <path d="M0 0 C-0.66 0 -1.32 0 -2 0 C-2.1 0.64 -2.21 1.28 -2.31 1.94 C-2.54 2.62 -2.77 3.3 -3 4 C-5.47 4.82 -7.77 5.37 -10.31 5.88 C-14.23 6.73 -17.53 7.92 -21 10 C-21.33 10.66 -21.66 11.32 -22 12 C-24.64 12 -27.28 12 -30 12 C-30.33 11.34 -30.66 10.68 -31 10 C-6.35 -2.04 -6.35 -2.04 0 0 Z " fill="#FDDA47" transform="translate(445,237)"/>
    <path d="M0 0 C0.33 1.32 0.66 2.64 1 4 C-1.31 5.98 -3.62 7.96 -6 10 C-6.66 9.01 -7.32 8.02 -8 7 C-5.36 4.69 -2.72 2.38 0 0 Z " fill="#FDD941" transform="translate(393,261)"/>
    <path d="M0 0 C-0.33 1.65 -0.66 3.3 -1 5 C-3.31 4.67 -5.62 4.34 -8 4 C-8 3.01 -8 2.02 -8 1 C-2.25 0 -2.25 0 0 0 Z " fill="#F5BF3A" transform="translate(453,234)"/>
    <path d="M0 0 C0 2 0 2 -1.69 4.12 C-4 6 -4 6 -6.75 6.25 C-7.49 6.17 -8.24 6.08 -9 6 C-4.5 0 -4.5 0 0 0 Z " fill="#FDDA45" transform="translate(385,271)"/>
    <path d="M0 0 C3.96 0 7.92 0 12 0 C11.01 1.65 10.02 3.3 9 5 C8.01 5 7.02 5 6 5 C6 4.01 6 3.02 6 2 C5.01 1.83 5.01 1.83 0 1 C0 0.67 0 0.34 0 0 Z " fill="#FDD652" transform="translate(583,280)"/>
    <path d="M0 0 C0.99 0.33 1.98 0.66 3 1 C0.38 5.88 0.38 5.88 -3 7 C-3 5.35 -3 3.7 -3 2 C-2.01 2 -1.02 2 0 2 C0 1.34 0 0.68 0 0 Z " fill="#F9B426" transform="translate(514,367)"/>
    <path d="M0 0 C0.33 1.32 0.66 2.64 1 4 C-2 6 -2 6 -4.19 5.62 C-4.79 5.42 -5.38 5.21 -6 5 C-4.02 3.35 -2.04 1.7 0 0 Z " fill="#F7A92C" transform="translate(317,326)"/>
    <path d="M0 0 C1.27 2.5 2.48 5.03 3.66 7.57 C7.52 15.74 11.39 22.67 18 29 C17.01 29.99 16.02 30.98 15 32 C12.75 29.95 12 28.99 11 26 C10.01 26 9.02 26 8 26 C8 24.68 8 23.36 8 22 C7.34 22 6.68 22 6 22 C4.24 18.91 4 17.77 4 14 C3.34 14 2.68 14 2 14 C2 13.34 2 12.68 2 12 C1.34 12 0.68 12 0 12 C-0.19 10.19 -0.38 8.38 -0.56 6.56 C-0.67 5.55 -0.77 4.54 -0.88 3.5 C-0.92 2.68 -0.96 1.85 -1 1 C-0.67 0.67 -0.34 0.34 0 0 Z " fill="#FED53F" transform="translate(535,237)"/>
    <path d="M0 0 C2.46 3.69 3.01 6.7 4 11 C2.68 11.33 1.36 11.66 0 12 C-0.38 10.34 -0.71 8.68 -1 7 C-0.67 6.67 -0.34 6.34 0 6 C0.04 4 0.04 2 0 0 Z " fill="#EEB129" transform="translate(450,285)"/>
    <path d="M0 0 C-0.19 0.61 -0.39 1.21 -0.59 1.84 C-0.85 2.67 -1.11 3.51 -1.38 4.38 C-1.5 4.78 -1.5 4.78 -2.15 6.84 C-6.77 24 -7.38 43.23 -1 60 C-0.75 60.66 -0.51 61.32 -0.25 61.99 C4.53 74.5 11.18 84.47 20.63 94.03 C22 96 22 96 21.78 98.13 C21.23 99.44 20.63 100.73 20 102 C19.9 104.25 19.87 106.5 19.88 108.75 C19.87 109.96 19.87 111.17 19.87 112.42 C19.99 115.71 20.38 118.77 21 122 C21.99 121.67 22.98 121.34 24 121 C24.52 121.74 25.04 122.47 25.57 123.23 C26.27 124.21 26.97 125.18 27.69 126.19 C28.37 127.15 29.06 128.11 29.76 129.11 C32 132 34.36 134.47 37 137 C37.39 137.39 37.39 137.39 39.37 139.36 C61.13 160.1 87.47 165.93 116.84 165.35 C142.84 164.39 169.4 154.52 188 136 C197.96 125.26 204.62 113.49 210 100 C213.01 102.95 215.82 105.94 218.5 109.19 C232.58 125.02 253.08 135.97 274 139 C289.3 139.88 304.44 140.16 319 135 C320.11 134.65 321.21 134.3 322.35 133.94 C342.35 127.06 356.61 113.32 366.31 94.69 C367.82 91.54 369 88.35 370 85 C370.66 85 371.32 85 372 85 C371.22 100.6 362.26 115.45 351 126 C342.06 133.32 332.66 138.6 322 143 C321.23 143.33 320.45 143.65 319.65 143.99 C295.79 152.95 267.76 150.78 244.38 141.62 C242.57 140.79 240.77 139.91 239 139 C238.51 138.76 238.51 138.76 236.04 137.52 C225.84 132.01 218.11 124.16 210 116 C209.41 117.16 208.81 118.32 208.2 119.52 C202.84 129.71 197.32 138 189 146 C188.27 146.73 187.55 147.47 186.8 148.23 C166.58 167.62 135.33 174.41 108.19 174.37 C84.9 173.87 60.91 166.41 42.8 151.48 C41 150 41 150 38 148 C38 147.34 38 146.68 38 146 C37.01 145.67 36.02 145.34 35 145 C34.34 144.01 33.68 143.02 33 142 C31.89 142.16 30.77 142.31 29.62 142.48 C15.02 144.28 1.66 143.6 -12 138 C-12.94 137.62 -13.88 137.23 -14.86 136.84 C-21.35 133.88 -26.58 129.58 -32 125 C-32.83 124.37 -33.67 123.73 -34.52 123.08 C-46.97 112.62 -55.61 93.87 -58 78 C-59 63.37 -58.97 49.57 -53 36 C-52.63 35.14 -52.25 34.28 -51.87 33.39 C-48.72 27.04 -43.93 22.02 -39 17 C-38.31 16.29 -37.62 15.57 -36.91 14.84 C-26.9 5.18 -13.91 -0.5 0 0 Z " fill="#49484A" transform="translate(506,198)"/>
    <path d="M0 0 C-0.33 1.32 -0.66 2.64 -1 4 C-1.66 4 -2.32 4 -3 4 C-3.33 4.99 -3.66 5.98 -4 7 C-5.38 8.22 -5.38 8.22 -7.12 9.5 C-16.88 17.59 -22.03 30.74 -24 43 C-24.24 46.49 -24.24 49.95 -24.19 53.44 C-24.19 54.31 -24.19 55.19 -24.19 56.1 C-24.15 62.11 -23.7 68.03 -23 74 C-28.39 76.47 -33.76 78.19 -39.5 79.69 C-40.32 79.91 -41.13 80.14 -41.97 80.37 C-46.8 81.64 -51.01 82.25 -56 82 C-56.17 82.33 -56.17 82.33 -57 84 C-59.92 68.04 -59.57 50.95 -53 36 C-52.63 35.14 -52.25 34.28 -51.87 33.39 C-48.72 27.04 -43.93 22.02 -39 17 C-38.31 16.29 -37.62 15.57 -36.91 14.84 C-26.9 5.18 -13.91 -0.5 0 0 Z " fill="#5A5A5B" transform="translate(506,198)"/>
    <path d="M0 0 C0.17 0.66 0.17 0.66 1 4 C1.66 4 2.32 4 3 4 C3.32 4.72 3.63 5.43 3.96 6.17 C9.7 18.41 17.38 28.51 28 37 C27.37 40.98 25.37 43.71 23.12 47 C22.43 48.03 21.73 49.06 21.01 50.12 C20.35 51.07 19.68 52.02 19 53 C18.46 53.78 17.92 54.57 17.37 55.38 C16.92 55.91 16.46 56.45 16 57 C15.34 57 14.68 57 14 57 C13.73 57.58 13.46 58.15 13.19 58.75 C11.98 61.03 10.57 62.95 9 65 C0.84 61.04 -5.52 56.32 -12 50 C-12.45 49.58 -12.45 49.58 -14.75 47.44 C-22.85 38.66 -32.59 24.46 -33.12 12.12 C-33.08 11.42 -33.04 10.72 -33 10 C-32.45 9.9 -31.89 9.8 -31.32 9.7 C-12.07 6.16 -12.07 6.16 -4.78 2.73 C-3 2 -3 2 0 2 C0 1.34 0 0.68 0 0 Z " fill="#4B4B4C" transform="translate(483,270)"/>
    <path d="M0 0 C3.37 3.2 6.11 6.87 8.96 10.53 C11 13 11 13 13.25 15.25 C13.83 15.83 14.41 16.41 15 17 C15 17.33 15 17.66 15 18 C11.77 18.39 11.77 18.39 8 18 C6.08 15.84 4.94 14.24 3.62 11.75 C3.28 11.16 2.94 10.58 2.59 9.97 C0.95 7.09 -0.57 4.32 -1 1 C-0.67 0.67 -0.34 0.34 0 0 Z " fill="#56575A" transform="translate(529,319)"/>
    <path d="M0 0 C1.51 1.24 1.51 1.24 3 3 C3.57 9.12 1.12 15.36 -1 21 C-1.33 21 -1.66 21 -2 21 C-3.39 13.3 -2.48 7.38 0 0 Z " fill="#F2B227" transform="translate(504,202)"/>
    <path d="M0 0 C3.3 0.66 3.3 0.66 20 4 C15.54 6.97 11.23 6.63 6 6 C3.4 4.95 2.1 3.93 0 2 C0 1.34 0 0.68 0 0 Z " fill="#3B3E42" transform="translate(552,309)"/>
    <path d="M0 0 C1.27 3.81 0.52 5.82 -0.44 9.69 C-0.58 10.28 -0.58 10.28 -1.31 13.26 C-1.54 14.17 -1.76 15.07 -2 16 C-2.99 15.67 -3.98 15.34 -5 15 C-5 13.35 -5 11.7 -5 10 C-6.32 9.67 -7.64 9.34 -9 9 C-8.43 8.52 -7.87 8.04 -7.29 7.54 C-6.55 6.91 -5.82 6.28 -5.06 5.62 C-4.33 5 -3.6 4.37 -2.85 3.73 C-1 2 -1 2 0 0 Z " fill="#4A4A4A" transform="translate(503,202)"/>
    <path d="M0 0 C1.65 1.32 3.3 2.64 5 4 C4.67 4.99 4.34 5.98 4 7 C1.36 5.68 -1.28 4.36 -4 3 C-2.68 2.67 -1.36 2.34 0 2 C0 1.34 0 0.68 0 0 Z " fill="#524C41" transform="translate(488,328)"/>
    <path d="M0 0 C2.31 0.66 4.62 1.32 7 2 C7 3.98 7 5.96 7 8 C6.67 7.34 6.34 6.68 6 6 C5.01 5.67 4.02 5.34 3 5 C1.31 2.44 1.31 2.44 0 0 Z " fill="#575348" transform="translate(538,338)"/>
    <path d="M0 0 C1.42 4.25 0.19 6.72 -1 11 C-2.56 9.25 -2.56 9.25 -4 7 C-3.84 4.31 -3.23 3.26 -1.44 1.25 C-1.2 1.04 -1.2 1.04 0 0 Z " fill="#51524D" transform="translate(503,202)"/>
    <path d="M0 0 C2.65 2.58 4.94 4.92 7 8 C6.34 8.66 5.68 9.32 5 10 C4.16 8.71 3.33 7.42 2.5 6.12 C2.04 5.41 1.57 4.69 1.09 3.95 C0 2 0 2 0 0 Z " fill="#4D463C" transform="translate(520,286)"/>
    <path d="M0 0 C0.66 0.99 1.32 1.98 2 3 C1.67 3.17 1.67 3.17 0 4 C0 4.99 0 5.98 0 7 C-0.33 7.17 -0.33 7.17 -2 8 C-2 7.34 -2 6.68 -2 6 C-2.66 5.67 -3.32 5.34 -4 5 C-2.68 3.35 -1.36 1.7 0 0 Z " fill="#6F695D" transform="translate(594,295)"/>
  </g>

  <g id="head" style="transform-origin: 550px 200px">
    <path d="M0 0 C7.57 5.66 13.13 12.31 17.34 20.75 C17.68 21.43 18.02 22.1 18.38 22.79 C22.44 32.55 21.36 45.86 18.34 55.75 C17.7 57.1 17.04 58.43 16.34 59.75 C17.06 59.59 17.78 59.43 18.51 59.27 C31.31 56.94 46.44 57.3 58.34 62.75 C58.88 63 58.88 63 61.62 64.23 C68.65 67.7 74 71.93 79.66 77.31 C85.21 82.37 90.9 87.08 98.66 87.44 C103.27 87.03 106.03 86.15 109.34 82.75 C110.72 79.75 111.89 76.7 113.07 73.62 C114.92 69.46 116.36 67.94 120.34 65.75 C125.66 64.69 129.82 65.77 134.34 68.75 C142.31 75 146.48 84.02 148.05 93.92 C150.24 115.08 143.78 132.12 130.78 148.88 C121.38 159.74 109.48 166.33 96.34 171.75 C95.57 172.08 94.79 172.41 94 172.74 C70.13 181.71 42.1 179.53 18.72 170.38 C16.91 169.54 15.12 168.66 13.34 167.75 C12.37 167.26 11.39 166.77 10.38 166.27 C0.18 160.76 -7.54 152.91 -15.66 144.75 C-16.25 145.91 -16.84 147.07 -17.46 148.27 C-22.81 158.47 -28.33 166.75 -36.66 174.75 C-37.38 175.49 -38.11 176.22 -38.86 176.98 C-59.08 196.38 -90.32 203.17 -117.46 203.12 C-140.31 202.63 -165.46 195.53 -182.66 179.94 C-184.66 178.75 -184.66 178.75 -187.12 178.82 C-190.22 179.96 -191.9 181.46 -194.28 183.75 C-197.76 187.01 -201.27 190.13 -204.97 193.13 C-209.1 196.47 -213.17 199.87 -217.22 203.32 C-221.69 207.12 -226.22 210.83 -230.82 214.48 C-234.5 217.43 -238.14 220.44 -241.78 223.44 C-258.48 237.22 -275.26 250.85 -292.66 263.75 C-291.21 268.22 -288.73 271.3 -285.66 274.75 C-281.85 279.14 -278.17 283.57 -274.66 288.19 C-274.25 288.73 -273.84 289.26 -273.42 289.81 C-272.59 290.9 -271.76 292 -270.93 293.09 C-268.74 295.96 -266.51 298.79 -264.28 301.63 C-263.83 302.21 -263.37 302.78 -262.9 303.38 C-259.49 307.71 -256.05 312.02 -252.59 316.32 C-248.53 321.38 -244.52 326.48 -240.58 331.64 C-237.04 336.26 -233.48 340.85 -229.91 345.44 C-229.31 346.2 -228.72 346.96 -228.11 347.75 C-226.9 349.31 -225.68 350.87 -224.47 352.42 C-221.53 356.2 -218.59 359.98 -215.66 363.75 C-215.37 364.12 -215.37 364.12 -213.91 365.99 C-210.96 369.79 -208 373.59 -205.05 377.39 C-188.11 399.2 -188.11 399.2 -185.06 402.92 C-183.66 404.75 -183.66 404.75 -182.08 407.24 C-177.33 414.22 -177.33 414.22 -172.89 415.64 C-169.61 415.92 -166.47 415.91 -163.19 415.77 C-161.99 415.77 -160.8 415.77 -159.57 415.76 C-155.76 415.74 -151.96 415.66 -148.16 415.57 C-125.96 415.17 -104.66 415.03 -87.21 431.07 C-74.39 444.99 -73.34 460.95 -73.53 478.88 C-73.54 480.52 -73.55 482.16 -73.56 483.8 C-73.58 487.79 -73.61 491.77 -73.66 495.75 C-72.48 495.71 -71.3 495.67 -70.09 495.63 C-48.88 494.95 -29.65 499.3 -13.03 513.07 C-3.33 522.55 1.61 534.71 1.79 548.15 C1.78 548.65 1.78 548.65 1.78 551.17 C1.78 552.22 1.79 553.28 1.79 554.36 C1.8 556.58 1.8 558.79 1.79 561 C1.78 564.38 1.81 567.75 1.84 571.12 C1.84 573.28 1.84 575.44 1.84 577.61 C1.85 578.6 1.86 579.6 1.87 580.63 C1.8 587.6 0.58 593.03 -4.07 598.38 C-14.03 607 -35.99 606.18 -48.41 607.32 C-49.03 607.37 -49.03 607.37 -52.2 607.66 C-79.18 610.02 -106.22 611.42 -133.28 612.38 C-134.19 612.41 -135.11 612.44 -136.05 612.48 C-221.53 615.47 -307.75 615.81 -415.66 610.75 C-416.82 610.69 -417.98 610.63 -419.18 610.56 C-438.89 609.5 -458.53 607.91 -478.16 605.75 C-478.52 605.71 -478.52 605.71 -480.34 605.52 C-505.67 602.74 -505.67 602.74 -511.98 595.16 C-515.95 589.44 -516.38 584.74 -516.29 577.89 C-516.29 576.87 -516.29 575.84 -516.29 574.79 C-516.29 572.62 -516.28 570.46 -516.25 568.3 C-516.22 565.03 -516.23 561.76 -516.25 558.48 C-516.24 543.07 -514.57 531.7 -505.66 518.75 C-505.25 518.14 -504.85 517.53 -504.43 516.89 C-496.61 506.43 -482.35 500.36 -470.03 497.57 C-469.29 497.39 -468.56 497.21 -467.8 497.03 C-463.98 496.14 -460.6 495.67 -456.66 495.75 C-456.68 494.6 -456.7 493.45 -456.72 492.26 C-456.79 487.93 -456.84 483.6 -456.88 479.27 C-456.9 477.4 -456.92 475.54 -456.96 473.67 C-457.32 453.83 -457.32 453.83 -452.66 444.75 C-452.19 443.77 -451.72 442.79 -451.23 441.77 C-443.68 429.23 -433.83 421.66 -419.87 417.42 C-416.39 416.7 -413.2 416.64 -409.66 416.75 C-414.32 407.02 -419.5 397.74 -425.04 388.48 C-426.92 385.31 -428.79 382.12 -430.66 378.93 C-431.01 378.32 -431.36 377.71 -431.73 377.09 C-432.46 375.84 -433.19 374.59 -433.92 373.34 C-440.23 362.55 -446.59 351.79 -453.04 341.09 C-453.46 340.39 -453.88 339.7 -454.31 338.98 C-455.31 337.33 -456.31 335.69 -457.32 334.06 C-457.87 333.16 -458.42 332.26 -458.99 331.33 C-459.5 330.5 -460.01 329.68 -460.53 328.83 C-461.66 326.75 -461.66 326.75 -461.66 324.75 C-462.89 324.4 -464.13 324.05 -465.41 323.69 C-483.36 317.6 -498.51 302.73 -507.41 286.25 C-516.72 266.13 -520.3 240.69 -513.17 219.29 C-507.48 205.99 -501.24 194.74 -490.66 184.75 C-490.31 184.42 -490.31 184.42 -488.57 182.72 C-477.59 172.52 -462.58 165 -447.66 162.75 C-445.79 162.83 -443.93 162.97 -442.08 163.15 C-422.42 164.55 -422.42 164.55 -414.52 158.41 C-411.76 155.93 -409.13 153.38 -406.57 150.7 C-403.49 147.57 -400.13 144.78 -396.78 141.94 C-395.55 140.87 -394.31 139.79 -393.08 138.71 C-390.1 136.12 -387.05 133.61 -383.97 131.13 C-379.52 127.53 -375.31 123.73 -371.13 119.83 C-367.94 116.88 -364.67 114.09 -361.28 111.38 C-357.59 108.42 -354.12 105.33 -350.71 102.05 C-332.46 84.55 -304 64.75 -277.66 64.75 C-277.55 64.19 -277.45 63.62 -277.34 63.04 C-274.16 52.38 -262.29 41.01 -252.66 35.75 C-237.44 28.55 -237.44 28.55 -229.34 28.69 C-228.13 28.71 -226.91 28.73 -225.66 28.75 C-225.85 29.36 -226.04 29.97 -226.24 30.59 C-226.37 31.01 -226.37 31.01 -227.03 33.13 C-227.29 33.94 -227.54 34.75 -227.8 35.59 C-232.42 52.76 -233.04 71.98 -226.66 88.75 C-226.41 89.41 -226.16 90.07 -225.91 90.75 C-222.35 100.05 -218.01 108.02 -211.66 115.75 C-211.03 116.54 -210.41 117.32 -209.77 118.13 C-206.57 122.01 -204.4 124.02 -199.66 125.75 C-198.49 126.79 -197.34 127.86 -196.22 128.94 C-186.23 137.92 -173.31 142.17 -160.05 142.97 C-153.03 142.52 -147.48 137.95 -142.72 133 C-136.78 125.95 -132.3 117.69 -127.66 109.75 C-128.22 109.91 -128.78 110.07 -129.37 110.23 C-144.07 113.57 -159.71 110.98 -172.39 103.04 C-174.62 101.39 -176.63 99.65 -178.66 97.75 C-179.25 97.26 -179.85 96.76 -180.47 96.25 C-190.37 87.45 -197 72.8 -197.86 59.66 C-198.1 42.34 -193.35 27.29 -181.28 14.69 C-168.46 2.82 -154.64 -1.23 -137.41 -0.63 C-131.35 -0.25 -126.14 1.16 -120.66 3.75 C-119.72 4.19 -118.77 4.63 -117.8 5.07 C-103.82 12.12 -93.74 23.87 -88.31 38.54 C-84.29 52.13 -86.4 66.85 -91.66 79.75 C-90.9 79.48 -90.14 79.2 -89.36 78.91 C-88.36 78.55 -87.37 78.19 -86.34 77.82 C-85.36 77.46 -84.37 77.1 -83.36 76.73 C-80.02 75.52 -77.18 74.62 -73.64 74.44 C-72.89 74.4 -72.13 74.35 -71.35 74.31 C-70.56 74.27 -69.78 74.23 -68.97 74.19 C-68.17 74.15 -67.37 74.11 -66.55 74.06 C-64.59 73.95 -62.62 73.85 -60.66 73.75 C-61.09 73.33 -61.53 72.9 -61.98 72.46 C-72.57 61.34 -75.21 48.71 -74.93 33.76 C-74.37 21.91 -67.33 10.55 -58.85 2.57 C-41.6 -11.7 -18.67 -12.09 0 0 Z " fill="#FAB11F" transform="translate(731.65625,169.24609375)"/>
    <path d="M0 0 C-2 3 -2 3 -5.12 4.69 C-19.53 12.64 -27.22 30.12 -32.2 45.04 C-37.09 63.19 -34.1 84.5 -25.43 100.98 C-14.56 118.89 1.2 131.09 21.54 136.28 C32.3 138.52 32.3 138.52 37 137 C39.39 134.47 40.91 131.99 42.5 128.89 C44.07 125.86 45.62 123.47 48 121 C50.36 120.29 50.36 120.29 52.75 120.19 C53.15 120.16 53.15 120.16 55.17 120.04 C55.78 120.03 56.38 120.01 57 120 C52.61 132.25 42.35 147.49 30.5 153.29 C20.26 156.2 7.92 151.91 -1.27 147.39 C-7.06 144.16 -11.45 140.77 -16 136 C-16.39 135.85 -16.39 135.85 -18.39 135.1 C-29.67 130.34 -36.93 114.2 -41.31 103.44 C-45.43 93.03 -47.55 82.96 -47.44 71.75 C-47.43 70.66 -47.42 69.57 -47.41 68.45 C-46.96 46.84 -38.14 28.71 -23.34 13.21 C-7.03 -2.34 -7.03 -2.34 0 0 Z " fill="#FBB823" transform="translate(547,159)"/>
    <path d="M0 0 C-0.79 0.71 -1.57 1.43 -2.38 2.16 C-8.05 7.32 -13.65 12.51 -19 18 C-19.66 18.66 -20.32 19.32 -21 20 C-22.56 18.75 -22.56 18.75 -24 17 C-23.81 14.04 -22.97 12.97 -20.93 10.78 C-5.45 -2.73 -5.45 -2.73 0 0 Z " fill="#FBB427" transform="translate(664,154)"/>
    <path d="M0 0 C1.32 0.82 1.32 0.82 8 5 C7.67 5.66 7.34 6.32 7 7 C6.01 6.67 5.02 6.34 4 6 C4 5.34 4 4.68 4 4 C2.68 4 1.36 4 0 4 C0 2.68 0 1.36 0 0 Z " fill="#FCD248" transform="translate(632,164)"/>
    <path d="M0 0 C0.66 0.33 1.32 0.66 2 1 C1.67 2.32 1.34 3.64 1 5 C-0.98 5.33 -2.96 5.66 -5 6 C-3.35 4.02 -1.7 2.04 0 0 Z " fill="#FBB230" transform="translate(527,169)"/>
    <path d="M0 0 C3.38 1.19 5.65 2.28 8 5 C6 5 4 5 2 5 C1.34 3.35 0.68 1.7 0 0 Z " fill="#FDD345" transform="translate(624,159)"/>
    <path d="M0 0 C0.33 0 0.66 0 1 0 C1.85 5.08 2.09 9.85 2 15 C6.62 15 11.24 15 16 15 C16.99 13.02 17.98 11.04 19 9 C19.33 9 19.66 9 20 9 C20 13.62 20 18.24 20 23 C15.88 23.16 15.88 23.16 -5 24 C-2 15 -2 15 -0.81 12.56 C0.49 8.45 0.15 4.28 0 0 Z " fill="#FDC829" transform="translate(753,205)"/>
    <path d="M0 0 C1.32 0.33 2.64 0.66 4 1 C3.84 1.72 3.67 2.44 3.51 3.18 C3.02 5.89 2.89 8.33 2.9 11.08 C2.91 12.01 2.91 12.94 2.91 13.9 C2.92 14.86 2.93 15.82 2.94 16.81 C2.94 17.79 2.95 18.77 2.95 19.78 C2.96 22.19 2.98 24.59 3 27 C2.01 27 1.02 27 0 27 C-1.85 17.49 -2.05 9.49 0 0 Z " fill="#FDD33A" transform="translate(655,193)"/>
    <path d="M0 0 C0.33 1.32 0.66 2.64 1 4 C3.97 4 6.94 4 10 4 C10 4.33 10 4.66 10 5 C5.88 5.16 5.88 5.16 -15 6 C-13 2 -13 2 -10.88 0.75 C-7.12 -0.23 -3.87 -0.13 0 0 Z " fill="#EDBE35" transform="translate(763,223)"/>
    <path d="M0 0 C0.37 -0.01 0.37 -0.01 2.27 -0.04 C6.1 -0.05 7.87 0.01 11.12 2.19 C8.24 3.15 6.41 3.32 3.41 3.32 C2.5 3.32 1.58 3.32 0.64 3.32 C-0.31 3.32 -1.27 3.32 -2.25 3.31 C-2.72 3.31 -2.72 3.31 -5.12 3.32 C-6.03 3.32 -6.95 3.32 -7.9 3.32 C-8.73 3.32 -9.57 3.32 -10.43 3.32 C-12.99 3.18 -15.37 2.75 -17.88 2.19 C-17.88 1.86 -17.88 1.53 -17.88 1.19 C-11.91 0.32 -6.02 0.05 0 0 Z " fill="#FDD750" transform="translate(700.875,141.8125)"/>
    <path d="M0 0 C3 1 3 1 4.07 2.53 C4.39 3.18 4.71 3.83 5.04 4.49 C5.22 4.84 5.22 4.84 6.11 6.63 C6.46 7.37 6.82 8.11 7.19 8.88 C7.37 9.24 7.37 9.24 8.3 11.1 C11 16.59 11 16.59 11 20 C10.01 20 9.02 20 8 20 C7.69 19.03 7.38 18.06 7.06 17.06 C6 14 6 14 5 13 C4.96 11 4.96 9 5 7 C4.17 6.67 4.17 6.67 0 5 C0 3.35 0 1.7 0 0 Z " fill="#FDD242" transform="translate(759,176)"/>
    <path d="M0 0 C0.33 0 0.66 0 1 0 C1.33 5.28 1.66 10.56 2 16 C1.01 16 0.02 16 -1 16 C-1.38 13.67 -1.71 11.34 -2 9 C-1.67 8.67 -1.34 8.34 -1 8 C-0.77 6.65 -0.59 5.3 -0.44 3.94 C-0.29 2.64 -0.15 1.34 0 0 Z " fill="#FED84D" transform="translate(656,204)"/>
    <path d="M0 0 C6.43 0.89 9.17 3.94 13 9 C9.26 9 8.63 8.1 5.94 5.62 C5.25 5 4.55 4.37 3.84 3.73 C2.54 2.51 1.26 1.26 0 0 Z " fill="#FDD341" transform="translate(728,167)"/>
    <path d="M0 0 C2.64 0 5.28 0 8 0 C7.34 1.32 6.68 2.64 6 4 C4.02 3.01 2.04 2.02 0 1 C0 0.67 0 0.34 0 0 Z " fill="#E6BC3E" transform="translate(702,255)"/>
    <path d="M0 0 C1.86 3.13 2.2 5.37 2 9 C1.34 9 0.68 9 0 9 C0 7.68 0 6.36 0 5 C-0.66 5 -1.32 5 -2 5 C-1 2 -1 2 0 0 Z " fill="#FDD24F" transform="translate(770,196)"/>
    <path d="M0 0 C0.99 0.66 1.98 1.32 3 2 C2.38 2.58 1.76 3.16 1.12 3.75 C-0.81 5.8 -1.9 7.43 -3 10 C-3.33 9.34 -3.66 8.68 -4 8 C-4.83 8.5 -4.83 8.5 -9 11 C-10.65 9.68 -12.3 8.36 -14 7 C-13.41 7 -12.82 6.99 -12.21 6.99 C-5.83 6.68 -5.83 6.68 -3.29 4.6 C-1.94 2.94 -1.94 2.94 0 0 Z " fill="#706F6D" transform="translate(716,248)"/>
    <path d="M0 0 C5.67 -0.29 8.99 -0.01 14 3 C13.67 3.66 13.34 4.32 13 5 C12.44 4.68 11.88 4.37 11.3 4.04 C8.85 2.93 6.92 2.61 4.25 2.38 C3.45 2.3 2.65 2.23 1.83 2.15 C1.22 2.1 0.62 2.05 0 2 C0 1.34 0 0.68 0 0 Z " fill="#707073" transform="translate(852,235)"/>
    <path d="M0 0 C1.06 0 2.13 0.01 3.22 0.01 C3.77 0.01 3.77 0.01 6.54 0.04 C7.66 0.04 8.77 0.04 9.93 0.05 C12.67 0.06 15.42 0.08 18.16 0.1 C18.16 0.43 18.16 0.76 18.16 1.1 C-0.66 3.21 -0.66 3.21 -9.84 4.1 C-9.84 3.44 -9.84 2.78 -9.84 2.1 C-10.5 1.77 -11.16 1.44 -11.84 1.1 C-7.84 0.35 -4.07 -0.02 0 0 Z " fill="#686B6E" transform="translate(758.8359375,227.90234375)"/>
    <path d="M0 0 C0.33 0.66 0.66 1.32 1 2 C1.66 2.33 2.32 2.66 3 3 C2.67 3.33 2.34 3.66 2 4 C1.6 6.18 1.26 8.37 0.94 10.56 C0.76 11.76 0.58 12.96 0.4 14.19 C0.27 15.12 0.14 16.05 0 17 C-0.33 17 -0.66 17 -1 17 C-1.03 14.73 -1.05 12.46 -1.06 10.19 C-1.07 9.56 -1.07 9.56 -1.1 6.36 C-1 3 -1 3 0 0 Z " fill="#4D4D4D" transform="translate(674,201)"/>
    <path d="M0 0 C4.62 0 9.24 0 14 0 C8.1 2.95 6.44 2.93 0 2 C0 1.34 0 0.68 0 0 Z " fill="#444344" transform="translate(699,180)"/>
    <path d="M0 0 C2.67 1.33 5.33 2.67 8 4 C8 4.66 8 5.32 8 6 C7.01 6.33 6.02 6.66 5 7 C3.29 5.38 1.63 3.71 0 2 C0 1.34 0 0.68 0 0 Z " fill="#454546" transform="translate(679,229)"/>
    <path d="M0 0 C1.19 1.69 1.19 1.69 2 4 C0.69 6.75 0.69 6.75 -1 9 C-1.33 9 -1.66 9 -2 9 C-2 7.35 -2 5.7 -2 4 C-1.34 4 -0.68 4 0 4 C0 2.68 0 1.36 0 0 Z " fill="#454545" transform="translate(731,220)"/>
  </g>

  <g id="mustache" style="transform-origin: 700px 175px">
    <path d="M0 0 C7.57 5.66 13.13 12.31 17.34 20.75 C17.68 21.43 18.02 22.1 18.38 22.79 C22.44 32.55 21.36 45.86 18.34 55.75 C17.7 57.1 17.04 58.43 16.34 59.75 C17.06 59.59 17.78 59.43 18.51 59.27 C31.31 56.94 46.44 57.3 58.34 62.75 C59.43 63.24 60.51 63.73 61.62 64.23 C68.65 67.7 74 71.93 79.66 77.31 C85.21 82.37 90.9 87.08 98.66 87.44 C103.27 87.03 106.03 86.15 109.34 82.75 C110.72 79.75 111.89 76.7 113.07 73.62 C114.92 69.46 116.36 67.94 120.34 65.75 C125.66 64.69 129.82 65.77 134.34 68.75 C142.31 75 146.48 84.02 148.05 93.92 C150.24 115.08 143.78 132.12 130.78 148.88 C121.38 159.74 109.48 166.33 96.34 171.75 C95.57 172.08 94.79 172.41 94 172.74 C70.13 181.71 42.1 179.53 18.72 170.38 C16.91 169.54 15.12 168.66 13.34 167.75 C12.86 167.51 12.86 167.51 10.38 166.27 C0.18 160.76 -7.54 152.91 -15.66 144.75 C-16.25 145.91 -16.84 147.07 -17.46 148.27 C-22.81 158.47 -28.33 166.75 -36.66 174.75 C-37.38 175.49 -38.11 176.22 -38.86 176.98 C-59.08 196.38 -90.32 203.17 -117.46 203.12 C-140.75 202.62 -164.74 195.17 -182.85 180.23 C-184.66 178.75 -184.66 178.75 -187.66 176.75 C-187.66 176.09 -187.66 175.43 -187.66 174.75 C-188.65 174.42 -189.64 174.09 -190.66 173.75 C-191.32 172.76 -191.98 171.77 -192.66 170.75 C-193.77 170.91 -194.88 171.07 -196.03 171.23 C-210.64 173.03 -224 172.35 -237.66 166.75 C-238.6 166.37 -239.54 165.99 -240.51 165.59 C-247 162.63 -252.24 158.33 -257.66 153.75 C-258.49 153.12 -259.32 152.49 -260.18 151.84 C-272.62 141.38 -281.26 122.63 -283.66 106.75 C-284.66 92.12 -284.62 78.32 -278.66 64.75 C-278.28 63.89 -277.91 63.03 -277.53 62.14 C-274.38 55.79 -269.58 50.77 -264.66 45.75 C-264.31 45.4 -264.31 45.4 -262.57 43.59 C-253.79 35.13 -241.5 28.74 -229.16 28.63 C-228 28.67 -226.85 28.71 -225.66 28.75 C-225.85 29.36 -226.04 29.97 -226.24 30.59 C-226.5 31.43 -226.76 32.27 -227.03 33.13 C-227.16 33.53 -227.16 33.53 -227.8 35.59 C-232.42 52.76 -233.04 71.98 -226.66 88.75 C-226.41 89.41 -226.16 90.07 -225.91 90.75 C-222.35 100.05 -218.01 108.02 -211.66 115.75 C-211.03 116.54 -210.41 117.32 -209.77 118.13 C-206.57 122.01 -204.4 124.02 -199.66 125.75 C-198.49 126.79 -197.34 127.86 -196.22 128.94 C-186.23 137.92 -173.31 142.17 -160.05 142.97 C-153.03 142.52 -147.48 137.95 -142.72 133 C-136.78 125.95 -132.3 117.69 -127.66 109.75 C-128.22 109.91 -128.78 110.07 -129.37 110.23 C-144.07 113.57 -159.71 110.98 -172.39 103.04 C-174.62 101.39 -176.63 99.65 -178.66 97.75 C-179.25 97.26 -179.85 96.76 -180.47 96.25 C-190.37 87.45 -197 72.8 -197.86 59.66 C-198.1 42.34 -193.35 27.29 -181.28 14.69 C-168.46 2.82 -154.64 -1.23 -137.41 -0.63 C-131.35 -0.25 -126.14 1.16 -120.66 3.75 C-119.72 4.19 -118.77 4.63 -117.8 5.07 C-103.82 12.12 -93.74 23.87 -88.31 38.54 C-84.29 52.13 -86.4 66.85 -91.66 79.75 C-91.28 79.62 -91.28 79.62 -89.36 78.91 C-88.86 78.73 -88.86 78.73 -86.34 77.82 C-85.36 77.46 -84.37 77.1 -83.36 76.73 C-80.02 75.52 -77.18 74.62 -73.64 74.44 C-72.89 74.4 -72.13 74.35 -71.35 74.31 C-70.56 74.27 -69.78 74.23 -68.97 74.19 C-68.57 74.17 -68.57 74.17 -66.55 74.06 C-64.59 73.95 -62.62 73.85 -60.66 73.75 C-61.09 73.33 -61.53 72.9 -61.98 72.46 C-72.57 61.34 -75.21 48.71 -74.93 33.76 C-74.37 21.91 -67.33 10.55 -58.85 2.57 C-41.6 -11.7 -18.67 -12.09 0 0 Z " fill="#626264" transform="translate(731.65625,169.24609375)"/>
    <path d="M0 0 C18.25 -0.77 36.35 5.2 50.2 17.31 C52.63 19.55 54.94 21.87 57.24 24.23 C57.91 24.89 58.57 25.55 59.26 26.22 C72.53 40.18 77.48 57.92 77.3 76.73 C77.28 79.87 77.26 83 77.24 86.23 C73.12 86.4 73.12 86.4 52.24 87.23 C52.9 85.25 53.56 83.27 54.24 81.23 C56.76 67.15 56.42 54.11 48.67 41.71 C46.98 39.4 45.2 37.32 43.24 35.23 C42.92 34.89 42.92 34.89 41.29 33.12 C31.5 23.49 18.98 19.93 5.54 19.92 C-6.6 20.15 -16.24 25.07 -24.98 33.34 C-33.4 42.24 -38.18 52.75 -38.01 65.11 C-38 65.82 -37.99 66.52 -37.98 67.25 C-37.68 80.65 -32.63 92.17 -23.76 102.23 C-24.92 102.26 -26.08 102.29 -27.27 102.31 C-35.89 102.59 -43.44 103.22 -51.57 106.39 C-53.76 107.23 -53.76 107.23 -55.76 107.23 C-55.28 104.5 -54.67 101.99 -53.76 99.36 C-49.74 86.81 -50.49 72.25 -55.76 60.23 C-57.83 56.34 -60.15 52.78 -62.76 49.23 C-63.29 48.5 -63.83 47.77 -64.38 47.02 C-72.26 37.17 -84.65 31.13 -96.76 28.23 C-114.55 26.45 -129.08 29.87 -143.16 41.16 C-154.14 51.12 -159.9 65.17 -161.03 79.77 C-161.46 94.9 -156.35 109.14 -146.45 120.67 C-136.55 130.84 -125.4 137.14 -111.08 137.54 C-104.63 137.6 -98.2 137.47 -91.76 137.23 C-96.49 149.53 -106.18 164.61 -118.26 170.52 C-128.5 173.44 -140.84 169.14 -150.03 164.62 C-155.82 161.4 -160.21 158 -164.76 153.23 C-165.15 153.09 -165.15 153.09 -167.15 152.34 C-178.43 147.57 -185.69 131.43 -190.07 120.67 C-194.19 110.27 -196.31 100.19 -196.2 88.98 C-196.19 87.9 -196.18 86.81 -196.17 85.68 C-195.7 62.87 -185.79 43.61 -169.51 27.92 C-149.26 10.35 -124.94 5.44 -98.76 7.23 C-93.55 7.93 -88.68 9.41 -83.76 11.23 C-82.73 11.59 -81.7 11.94 -80.64 12.3 C-73.44 14.99 -67.67 18.86 -61.57 23.44 C-58.76 25.23 -58.76 25.23 -54.76 25.23 C-52.71 23.58 -52.71 23.58 -50.45 21.3 C-41.74 13.15 -31.08 6.98 -19.76 3.23 C-18.58 2.84 -17.41 2.45 -16.2 2.05 C-10.78 0.77 -5.54 0.35 0 0 Z " fill="#FDD033" transform="translate(695.7578125,141.765625)"/>
  </g>

  <g id="eye-left" style="transform-origin: 630px 210px">
    <path d="M0 0 C0.94 0.44 1.88 0.87 2.85 1.32 C16.83 8.37 26.92 20.11 32.34 34.78 C35.44 45.27 34.9 57.52 32 68 C31.86 68.72 31.73 69.43 31.59 70.17 C30.7 73.71 29.78 75.47 26.71 77.55 C24.82 78.54 22.9 79.5 20.98 80.44 C10.66 85.84 2.34 94.73 -4.23 104.18 C-8.25 108.31 -15.87 107.36 -21.31 107.44 C-35.6 107.52 -47.39 103.95 -58 94 C-58.6 93.5 -59.2 93 -59.81 92.49 C-69.72 83.69 -76.34 69.05 -77.2 55.91 C-77.44 38.58 -72.69 23.53 -60.62 10.94 C-44.41 -4.07 -20.53 -9.69 0 0 Z " fill="#FCFCFA" transform="translate(611,173)"/>
    <path d="M0 0 C7.26 5.98 12.62 13.33 14.1 22.73 C15.03 35.42 12.46 45.01 4.1 54.73 C-3.19 62.17 -12.7 65.78 -23.09 66.17 C-33.42 65.62 -41.24 61.64 -48.9 54.73 C-51.32 51.9 -53.17 49.02 -54.9 45.73 C-55.52 44.58 -56.14 43.42 -56.77 42.23 C-59.48 34.17 -59.37 22.96 -55.9 15.17 C-55.24 14.03 -54.58 12.9 -53.9 11.73 C-53.61 12.33 -53.32 12.92 -53.02 13.54 C-50.87 17.75 -48.86 21.09 -44.9 23.73 C-40.31 24.47 -36.87 24.34 -32.9 21.86 C-29.86 18.63 -29.48 16.28 -29.57 11.83 C-30.14 8.18 -32.01 5.85 -34.9 3.73 C-37.83 2.43 -40.78 1.5 -43.9 0.73 C-32.58 -11.89 -12.64 -9.05 0 0 Z " fill="#3D3D3E" transform="translate(614.8984375,197.26953125)"/>
    <path d="M0 0 C6.04 3.73 9.85 10.7 11.66 17.46 C12.05 20.39 12.17 23.23 12.19 26.19 C12.2 27.23 12.22 28.28 12.23 29.36 C12 32 12 32 10 34 C9.94 33.08 9.88 32.16 9.82 31.22 C9.38 24.78 8.89 18.39 8 12 C7.34 12 6.68 12 6 12 C5.57 11.09 5.13 10.19 4.69 9.25 C3 6 3 6 1.31 3.75 C0 2 0 2 0 0 Z " fill="#454545" transform="translate(617,200)"/>
    <path d="M0 0 C1.32 0.66 1.32 0.66 8 4 C4 5 4 5 1.75 4.06 C1.17 3.71 0.6 3.36 0 3 C0 2.01 0 1.02 0 0 Z " fill="#434344" transform="translate(607,193)"/>
  </g>

  <g id="eye-right" style="transform-origin: 745px 195px">
    <path d="M0 0 C7.57 5.66 13.13 12.31 17.34 20.75 C17.68 21.43 18.02 22.1 18.38 22.79 C22.41 32.47 21.45 45.94 18.34 55.75 C16.79 59.12 15.9 60.48 12.52 62.12 C11.43 62.48 10.34 62.83 9.22 63.19 C-1.69 67.1 -11.71 74.07 -18.68 83.48 C-20.66 85.75 -20.66 85.75 -22.74 86.49 C-29.17 86.53 -33.54 84.57 -39.12 81.45 C-43.64 79.01 -47.43 78.13 -52.53 77.44 C-57.87 76.52 -60.69 75.56 -64.22 71.38 C-72.96 58.35 -76.1 45.33 -74.66 29.75 C-71.96 17.41 -64.45 6.39 -54.27 -0.97 C-37.31 -11.79 -16.83 -10.9 0 0 Z " fill="#FBFBFA" transform="translate(731.65625,169.24609375)"/>
    <path d="M0 0 C6.57 5.9 11.36 12.4 12.38 21.29 C12.72 31.14 11.06 39.54 4.88 47.38 C-0.58 53.12 -8.01 56.59 -15.88 57.24 C-26.48 57.48 -34.39 55.42 -42.24 48.07 C-49.56 39.45 -50.74 29.93 -50 19 C-49.27 16.31 -48.39 14.43 -47 12 C-45.78 13.84 -44.6 15.71 -43.5 17.62 C-42 20 -42 20 -40 21 C-35.75 21.5 -32.2 21.75 -28.5 19.44 C-26.48 16.16 -26 13.85 -26 10 C-28.73 4.77 -32.66 3.69 -38 2 C-29.33 -8.62 -10.38 -7.73 0 0 Z " fill="#3D3C3D" transform="translate(723,185)"/>
  </g>

</svg>
